<?xml version="1.0" standalone="no"?>
<!DOCTYPE svg PUBLIC "-//W3C//DTD SVG 20010904//EN"
 "http://www.w3.org/TR/2001/REC-SVG-20010904/DTD/svg10.dtd">
<svg version="1.0" xmlns="http://www.w3.org/2000/svg"
 width="900.000000pt" height="900.000000pt" viewBox="0 0 900.000000 900.000000"
 preserveAspectRatio="xMidYMid meet">
<metadata>
Created by potrace 1.14, written by Peter Selinger 2001-2017
</metadata>
<g transform="translate(0.000000,900.000000) scale(0.100000,-0.100000)"
fill="#000000" stroke="none">
<path d="M4869 7894 c-12 -14 -11 -16 5 -13 11 2 21 10 24 17 5 17 -13 15 -29
-4z"/>
<path d="M5240 7343 c0 -26 5 -55 10 -63 7 -11 10 1 10 42 0 31 -4 60 -10 63
-6 4 -10 -12 -10 -42z"/>
<path d="M5323 7174 c-7 -3 -13 -12 -13 -20 0 -16 -12 -18 -25 -5 -26 25 -262
-76 -340 -145 -34 -30 -38 -38 -28 -53 13 -20 8 -31 -14 -31 -7 0 -13 7 -13
15 0 23 -18 18 -36 -11 -15 -22 -15 -27 -3 -35 10 -6 11 -13 3 -26 -19 -30
-36 -28 -28 4 l7 28 -27 -32 c-35 -41 -96 -161 -96 -188 0 -12 -11 -43 -23
-71 -34 -70 -63 -192 -73 -301 -7 -80 -8 -78 57 -73 28 1 57 -24 39 -35 -5 -3
-10 -17 -10 -31 0 -25 -10 -28 -44 -15 -18 7 -18 8 -2 14 10 4 16 15 14 24 -4
23 -55 25 -64 3 -3 -8 -10 -71 -15 -140 -11 -172 -17 -227 -40 -362 -10 -65
-18 -121 -18 -125 2 -8 -2 -22 -27 -83 -7 -19 -18 -53 -23 -75 -16 -68 -67
-203 -93 -243 -41 -65 -48 -76 -67 -117 -22 -49 -84 -100 -109 -90 -18 7 -51
9 -477 25 -148 6 -326 12 -395 15 -146 6 -488 19 -1070 40 -228 8 -584 22
-790 30 -499 20 -733 23 -751 9 -8 -6 -25 -14 -39 -17 -26 -6 -99 -71 -125
-111 -25 -37 -28 -139 -10 -326 17 -174 28 -320 40 -520 3 -58 10 -123 15
-145 6 -22 12 -85 14 -140 8 -164 26 -447 31 -485 3 -19 10 -107 16 -195 5
-88 15 -218 20 -290 6 -71 14 -195 19 -275 4 -80 15 -246 23 -370 8 -124 14
-234 14 -245 0 -11 3 -94 6 -183 6 -159 7 -166 38 -228 18 -35 40 -72 51 -81
43 -43 55 -52 98 -74 91 -46 119 -44 1325 86 83 9 188 20 235 25 87 9 532 58
583 64 42 5 51 19 38 57 -15 45 -14 115 4 148 8 16 19 50 25 76 6 26 19 64 29
86 27 54 28 202 2 262 -12 28 -19 70 -20 116 0 40 -3 77 -6 81 -9 15 17 165
30 172 11 6 10 17 0 52 -18 60 0 166 28 166 11 0 17 5 14 13 -2 6 -10 12 -18
12 -8 0 -15 10 -17 23 -3 17 2 25 17 29 12 3 21 10 21 15 0 6 -10 8 -22 5 -25
-7 -73 16 -82 38 -8 23 -7 107 2 122 9 15 86 11 106 -6 14 -11 16 -11 16 3 0
9 -5 16 -11 16 -7 0 -9 10 -7 25 7 32 -8 42 -22 15 -17 -31 -31 -14 -24 30 5
29 2 47 -11 66 -9 14 -14 32 -11 40 6 16 -19 20 -29 4 -15 -24 -25 6 -21 63 3
51 8 64 25 72 12 5 21 17 21 26 0 9 7 19 15 23 19 7 20 26 0 26 -8 0 -19 -9
-25 -20 -16 -29 -27 -24 -22 10 3 22 0 30 -11 30 -10 0 -13 6 -10 20 6 24 -22
28 -31 5 -3 -8 -15 -15 -26 -15 -11 0 -20 -4 -20 -9 0 -5 -8 -17 -17 -27 -10
-10 -18 -29 -18 -43 0 -22 -4 -25 -24 -23 -23 4 -23 3 -16 -54 7 -55 6 -57
-11 -44 -9 8 -15 11 -13 5 2 -5 11 -27 18 -47 11 -27 22 -39 43 -43 29 -7 36
-23 16 -43 -8 -8 -8 -15 2 -27 10 -12 9 -19 -4 -40 -9 -14 -25 -25 -35 -25
-14 0 -17 -6 -14 -24 3 -12 0 -40 -6 -61 -6 -21 -7 -43 -2 -49 4 -6 9 -36 10
-66 2 -30 4 -71 4 -90 2 -33 1 -34 -42 -42 -57 -10 -68 0 -76 65 -6 59 5 112
25 112 30 0 51 84 38 153 -5 32 -7 82 -4 112 4 32 2 69 -5 87 -8 25 -7 44 4
83 13 43 13 55 2 78 -9 16 -13 55 -12 97 2 65 4 70 25 73 16 3 22 8 18 19 -3
8 -6 19 -6 24 0 5 -11 9 -25 9 -22 0 -24 3 -15 19 7 13 7 22 0 26 -15 9 -13
148 3 164 10 11 10 14 0 18 -8 3 -13 25 -13 59 0 41 5 59 21 75 11 11 27 18
35 15 7 -3 18 3 24 14 10 19 13 19 40 5 16 -8 37 -15 46 -15 14 0 16 -10 12
-81 -5 -80 -5 -80 19 -74 13 3 23 1 23 -6 0 -6 6 -17 14 -25 25 -25 66 -14 45
12 -8 10 -8 15 4 19 10 4 14 19 12 48 -2 23 1 50 6 59 7 12 4 20 -7 26 -20 11
-10 32 15 32 33 0 40 -21 32 -85 -10 -66 -7 -77 14 -68 23 8 45 -16 45 -48 0
-16 4 -29 10 -29 6 0 8 -20 5 -47 -2 -27 -1 -42 3 -36 5 8 13 9 22 3 8 -5 24
-7 36 -4 30 8 45 -17 45 -79 1 -82 -5 -95 -49 -95 -20 0 -44 6 -52 14 -16 14
-60 9 -60 -7 0 -5 11 -9 25 -9 18 0 25 -5 25 -19 0 -10 -7 -21 -15 -25 -19 -7
-19 -26 0 -26 9 0 15 -9 15 -25 0 -27 9 -32 26 -15 13 13 39 -13 31 -32 -7
-18 -84 -14 -106 6 -17 16 -18 15 -16 -16 1 -18 5 -41 10 -52 5 -12 3 -21 -5
-26 -19 -12 -4 -53 24 -66 21 -10 25 -8 35 13 16 34 14 60 -5 67 -26 10 3 38
35 34 22 -3 26 -7 23 -33 -2 -20 0 -27 7 -20 5 6 11 26 13 45 2 27 8 36 26 38
21 3 22 0 23 -65 1 -37 0 -72 -1 -78 -2 -5 -3 -30 -4 -55 0 -28 -6 -50 -16
-57 -12 -10 -13 -15 -3 -32 7 -12 13 -25 13 -30 0 -16 -72 -5 -85 13 -16 21
-27 20 -23 -1 1 -10 0 -23 -4 -28 -8 -13 13 -105 24 -105 5 0 13 -12 18 -26 8
-21 15 -25 34 -20 14 3 28 0 35 -8 13 -15 19 -136 8 -153 -4 -6 -25 -10 -47
-10 -22 0 -44 -3 -48 -7 -9 -10 20 -27 37 -21 8 3 18 0 22 -6 4 -8 14 -9 25
-4 11 5 28 9 39 9 11 1 19 7 18 14 -2 6 6 12 17 12 24 0 25 8 3 32 -19 22 -28
124 -11 134 6 4 22 7 36 8 23 1 25 5 28 71 3 39 10 81 17 94 10 19 9 25 -6 36
-20 15 -21 28 -4 56 10 17 10 23 0 26 -18 6 -16 24 4 38 14 10 17 31 18 116 0
57 5 116 9 132 5 17 4 32 -3 41 -17 20 -3 186 15 186 8 0 14 5 14 10 0 6 -9
10 -20 10 -13 0 -20 7 -20 20 0 13 7 20 19 20 11 0 27 3 35 6 15 6 16 -6 10
-117 -4 -68 -8 -162 -8 -209 l-1 -85 27 2 c19 1 28 -4 32 -20 7 -26 0 -35 -16
-19 -18 18 -36 14 -49 -10 -15 -27 -20 -96 -8 -104 14 -9 10 -36 -8 -57 -17
-18 -17 -19 0 -32 21 -15 22 -29 2 -45 -12 -10 -14 -41 -14 -159 1 -80 -2
-159 -6 -175 l-8 -29 58 6 c67 7 96 29 152 117 43 68 115 137 168 161 22 10
64 19 93 19 l52 0 0 33 c0 18 -6 39 -12 46 -21 20 24 52 60 42 15 -4 33 -6 40
-4 18 7 15 -34 -3 -41 -9 -3 -18 1 -21 9 -10 24 -43 18 -50 -9 -8 -34 2 -46
40 -46 34 0 56 -15 56 -38 0 -9 -6 -12 -17 -7 -10 4 -24 9 -30 12 -28 11 -9
-17 65 -97 42 -47 90 -104 105 -127 17 -27 35 -43 47 -43 12 0 23 -8 26 -17 9
-32 36 -82 53 -100 10 -10 20 -26 24 -36 12 -32 72 -105 90 -110 10 -3 17 -15
17 -29 0 -13 9 -31 20 -41 11 -9 20 -23 20 -30 0 -8 11 -24 25 -37 14 -13 25
-29 25 -37 0 -7 14 -27 30 -45 17 -17 30 -35 30 -40 0 -10 42 -72 52 -76 4 -2
17 -23 29 -48 13 -24 26 -44 31 -44 14 0 9 21 -13 51 -41 58 -19 68 221 92
262 27 344 58 344 128 0 44 -27 98 -67 137 -145 139 -259 228 -456 357 -42 27
-85 58 -96 68 -11 11 -42 36 -70 57 -27 20 -89 78 -137 128 -151 159 -230 287
-266 432 -26 101 -52 296 -52 383 0 66 28 197 53 244 50 96 59 117 68 146 14
49 37 165 44 229 3 32 11 60 16 63 5 4 9 16 9 29 0 39 73 207 136 311 60 99
83 152 120 270 25 82 48 111 100 126 24 7 45 18 48 24 9 24 -16 127 -39 161
-23 33 -29 55 -28 92 1 16 -12 15 -25 -1 -7 -8 -7 -18 -2 -27 13 -20 12 -40
-1 -40 -6 0 -13 9 -16 20 -8 31 -23 13 -16 -20 3 -20 1 -30 -6 -30 -9 0 -10
-13 -6 -44 5 -28 3 -46 -4 -50 -7 -5 -11 3 -11 21 0 34 -25 73 -47 73 -23 0
-9 182 18 228 10 18 19 40 19 48 0 23 -24 11 -30 -14 -8 -32 -32 -11 -28 24 3
27 6 29 41 28 37 -1 38 0 36 30 -3 48 19 101 42 101 10 0 15 -14 16 -45 3 -71
15 -150 23 -150 4 0 10 14 14 30 6 34 21 39 29 10 6 -22 27 -28 27 -7 0 7 -8
38 -17 68 -12 39 -17 91 -17 184 -1 177 3 192 67 237 116 80 294 92 362 24 53
-53 77 -263 41 -350 -19 -45 -14 -56 16 -37 31 19 184 18 232 -3 58 -24 67
-17 49 36 -24 68 -28 164 -9 238 23 89 50 114 151 139 67 16 97 16 178 -4 67
-16 85 -25 126 -64 53 -50 49 -39 68 -226 10 -105 9 -147 -7 -176 -8 -14 -28
-51 -44 -82 l-30 -56 26 -24 c14 -13 33 -47 42 -75 20 -58 12 -98 -25 -146
-13 -16 -18 -33 -14 -45 3 -11 -1 -34 -10 -51 -19 -37 -11 -70 17 -70 80 0
290 -187 385 -342 74 -121 128 -233 164 -339 17 -52 35 -98 38 -104 4 -5 13
-30 20 -55 19 -66 93 -202 166 -308 36 -51 65 -99 65 -105 0 -7 6 -21 14 -32
7 -11 28 -56 45 -100 18 -44 38 -93 46 -110 7 -16 16 -41 18 -55 43 -198 46
-224 48 -373 1 -87 -1 -160 -5 -164 -19 -19 -2 -31 52 -35 71 -5 114 -26 124
-58 3 -14 12 -45 19 -70 28 -102 66 -148 158 -191 61 -29 69 -30 101 -19 40
15 154 103 195 152 82 97 83 168 8 338 -141 318 -263 545 -364 679 -27 36 -49
71 -49 77 0 10 -22 41 -111 157 -12 15 -29 41 -38 57 -9 16 -26 41 -38 55 -13
14 -23 27 -23 29 0 4 -63 99 -138 206 -117 167 -202 294 -202 301 0 4 -17 34
-38 66 -45 68 -182 318 -211 383 -27 62 -86 312 -105 445 -8 61 -20 175 -26
255 -18 257 -21 284 -35 345 -7 33 -16 86 -20 119 -4 32 -16 81 -27 110 -11
28 -23 62 -27 76 -5 14 -28 66 -51 115 -50 104 -129 191 -221 243 -31 18 -62
38 -68 46 -6 7 -30 21 -53 31 -24 10 -56 23 -73 31 -45 19 -134 42 -192 49
-48 6 -53 5 -53 -12 0 -28 -9 -34 -32 -20 -16 10 -22 9 -33 -6 -13 -18 -14
-18 -26 5 -7 13 -12 25 -11 27 3 6 -101 11 -115 5z m-36 -67 c17 -1 37 -47 20
-47 -7 0 -18 5 -25 12 -8 8 -14 5 -21 -15 -6 -15 -15 -27 -20 -27 -16 0 -23
20 -12 33 6 8 6 18 1 27 -11 18 8 33 30 24 8 -4 20 -7 27 -7z m133 -24 c-1
-36 -2 -37 -15 -19 -16 21 -19 39 -8 49 15 16 23 5 23 -30z m400 -4 c0 -5 -4
-9 -10 -9 -5 0 -10 7 -10 16 0 8 5 12 10 9 6 -3 10 -10 10 -16z m-507 -81 c5
-34 -7 -68 -23 -68 -6 0 -9 23 -8 50 3 57 23 68 31 18z m447 -44 c0 -16 -16
-19 -25 -4 -8 13 4 32 16 25 5 -4 9 -13 9 -21z m60 10 c0 -8 -5 -12 -10 -9 -6
4 -8 11 -5 16 9 14 15 11 15 -7z m110 -25 c0 -6 -4 -7 -10 -4 -5 3 -10 11 -10
16 0 6 5 7 10 4 6 -3 10 -11 10 -16z m-1015 -79 c3 -5 1 -10 -4 -10 -6 0 -11
5 -11 10 0 6 2 10 4 10 3 0 8 -4 11 -10z m505 -5 c0 -8 -2 -15 -4 -15 -2 0 -6
7 -10 15 -3 8 -1 15 4 15 6 0 10 -7 10 -15z m-110 -5 c0 -5 -7 -10 -15 -10 -8
0 -15 5 -15 10 0 6 7 10 15 10 8 0 15 -4 15 -10z m-14 -47 c49 -55 66 -151 43
-253 -5 -25 -12 -94 -14 -154 -4 -112 -9 -126 -47 -126 -14 0 -18 8 -18 38 l1
37 14 -25 14 -25 1 25 c1 14 3 39 6 57 2 18 0 42 -6 55 -9 23 -9 21 -15 -28
-4 -38 -15 -47 -36 -28 -10 9 -19 23 -19 31 0 7 -10 13 -22 13 -12 0 -59 12
-105 27 -69 22 -84 30 -89 50 -4 14 -1 30 5 36 6 6 11 21 11 33 0 12 7 27 16
34 21 19 37 50 41 84 5 47 27 71 97 104 36 17 66 36 66 42 0 21 24 9 56 -27z
m524 17 c0 -5 -4 -10 -10 -10 -5 0 -10 5 -10 10 0 6 5 10 10 10 6 0 10 -4 10
-10z m-1010 -52 c0 -18 -17 -34 -27 -25 -3 3 -2 20 2 38 5 23 10 28 16 18 5
-8 9 -22 9 -31z m118 -12 c3 -22 0 -27 -14 -24 -10 1 -17 6 -16 11 1 4 2 16 2
28 0 31 24 18 28 -15z m1049 -23 c-3 -10 -5 -4 -5 12 0 17 2 24 5 18 2 -7 2
-21 0 -30z m-60 -5 c-3 -7 -5 -2 -5 12 0 14 2 19 5 13 2 -7 2 -19 0 -25z
m-1042 -1 c22 -17 11 -41 -16 -34 -26 7 -43 -17 -30 -41 12 -23 -9 -59 -28
-48 -9 6 -9 11 0 22 9 11 9 17 -1 28 -9 12 -6 19 14 37 14 13 26 29 26 36 0
17 11 17 35 0z m553 -10 c2 -10 -3 -17 -12 -17 -10 0 -16 9 -16 21 0 24 23 21
28 -4z m-498 -17 c0 -5 -2 -10 -4 -10 -3 0 -8 5 -11 10 -3 6 -1 10 4 10 6 0
11 -4 11 -10z m-43 -143 c6 2 14 0 17 -5 9 -15 -53 -37 -66 -24 -17 17 -2 45
19 34 10 -5 23 -7 30 -5z m1053 -5 c0 -27 -23 -72 -38 -72 -13 0 -8 38 10 73
11 22 28 22 28 -1z m-360 -28 c0 -21 -4 -33 -10 -29 -17 10 -11 65 7 65 2 0 3
-16 3 -36z m-790 -5 c0 -5 -7 -9 -15 -9 -15 0 -20 12 -9 23 8 8 24 -1 24 -14z
m1415 11 c3 -5 1 -10 -4 -10 -6 0 -11 5 -11 10 0 6 2 10 4 10 3 0 8 -4 11 -10z
m-1275 -61 c0 -4 -7 -12 -16 -17 -13 -7 -14 -13 -5 -30 7 -14 8 -23 1 -27 -5
-3 -10 3 -10 14 0 16 -6 21 -25 21 -16 0 -25 -6 -25 -16 0 -12 -3 -14 -12 -6
-7 5 -24 12 -37 14 -14 1 -26 9 -29 16 -3 9 12 12 53 12 47 0 58 3 62 19 3 13
11 17 24 14 10 -3 19 -9 19 -14z m-220 -35 c0 -2 -7 -4 -15 -4 -8 0 -15 4 -15
10 0 5 7 7 15 4 8 -4 15 -8 15 -10z m707 -36 c-2 -13 -4 -5 -4 17 -1 22 1 32
4 23 2 -10 2 -28 0 -40z m183 32 c0 -5 -2 -10 -4 -10 -3 0 -8 5 -11 10 -3 6
-1 10 4 10 6 0 11 -4 11 -10z m160 -10 c0 -11 -4 -20 -10 -20 -5 0 -10 9 -10
20 0 11 5 20 10 20 6 0 10 -9 10 -20z m-850 -101 c0 -5 -11 -9 -25 -9 -26 0
-34 15 -12 23 16 5 37 -3 37 -14z m430 -238 c0 -33 5 -43 30 -61 17 -12 30
-17 30 -11 0 6 5 11 10 11 14 0 12 -27 -2 -33 -10 -4 -10 -7 0 -18 20 -22 14
-29 -20 -22 -65 12 -68 17 -68 98 0 43 4 75 10 75 6 0 10 -18 10 -39z m71 -24
c-8 -8 -11 0 -10 29 1 39 1 39 11 11 7 -21 7 -32 -1 -40z m864 44 c3 -5 1 -12
-5 -16 -5 -3 -10 1 -10 9 0 18 6 21 15 7z m-1574 -14 c-1 -12 -15 -9 -19 4 -3
6 1 10 8 8 6 -3 11 -8 11 -12z m-51 -117 c0 -16 -4 -30 -10 -30 -5 0 -10 3
-10 8 0 4 -3 17 -6 30 -5 16 -2 22 10 22 11 0 16 -9 16 -30z m110 11 c0 -10
-6 -24 -13 -30 -11 -8 -16 -5 -25 13 -8 19 -8 26 1 30 25 10 37 5 37 -13z
m1520 -101 c0 -12 -17 -12 -45 0 -17 7 -15 9 13 9 17 1 32 -3 32 -9z m-1602
-18 c2 -7 -3 -12 -12 -12 -9 0 -16 7 -16 16 0 17 22 14 28 -4z m1602 -47 c0
-10 -11 -15 -35 -15 -41 0 -47 17 -7 23 15 2 30 5 35 6 4 0 7 -6 7 -14z m-129
-103 c-7 -13 -10 -12 -20 6 -9 17 -8 26 1 42 13 20 13 19 20 -7 4 -14 3 -33
-1 -41z m-1557 23 c-4 -8 -10 -15 -15 -15 -5 0 -9 7 -9 15 0 8 7 15 15 15 9 0
12 -6 9 -15z m6 -65 c0 -19 -17 -36 -27 -26 -3 3 -2 17 1 31 7 28 26 25 26 -5z
m-16 -76 c12 -31 4 -94 -13 -94 -4 0 -7 25 -7 55 -1 54 8 71 20 39z m36 -159
c0 -8 -4 -15 -10 -15 -5 0 -10 7 -10 15 0 8 5 15 10 15 6 0 10 -7 10 -15z
m170 -5 c0 -5 -4 -10 -10 -10 -5 0 -10 5 -10 10 0 6 5 10 10 10 6 0 10 -4 10
-10z m-310 -154 c0 -8 -4 -18 -10 -21 -5 -3 -10 3 -10 14 0 12 5 21 10 21 6 0
10 -6 10 -14z m210 -12 c0 -8 -4 -14 -10 -14 -5 0 -10 9 -10 21 0 11 5 17 10
14 6 -3 10 -13 10 -21z m-72 -21 c5 -34 -30 -103 -81 -159 -26 -29 -47 -59
-47 -69 0 -9 -13 -28 -28 -43 -28 -26 -72 -139 -72 -183 0 -11 -7 -22 -16 -26
-13 -5 -15 -15 -10 -54 6 -46 -3 -65 -19 -39 -10 17 -35 -9 -35 -36 0 -12 -5
-35 -11 -51 -10 -27 -11 -28 -25 -8 -14 19 -16 19 -28 3 -17 -23 -43 -23 -55
0 -14 26 9 103 46 154 17 24 35 64 40 88 8 38 12 45 31 43 26 -3 52 45 31 57
-14 9 -8 42 9 48 7 2 16 -5 19 -17 3 -12 9 -21 13 -21 15 0 40 31 40 48 0 9
17 44 38 77 39 62 92 168 92 185 0 13 32 30 50 27 8 -1 16 -12 18 -24z m-158
-23 c0 -5 -4 -10 -10 -10 -5 0 -10 5 -10 10 0 6 5 10 10 10 6 0 10 -4 10 -10z
m-50 -96 c0 -8 -4 -12 -10 -9 -5 3 -10 10 -10 16 0 5 5 9 10 9 6 0 10 -7 10
-16z m-4 -91 c-10 -10 -19 5 -10 18 6 11 8 11 12 0 2 -7 1 -15 -2 -18z m-106
-88 c0 -16 -6 -25 -15 -25 -8 0 -15 -5 -15 -12 0 -6 -2 -9 -5 -6 -5 5 23 68
31 68 2 0 4 -11 4 -25z m-3390 -55 c5 0 17 12 28 27 11 15 24 23 31 19 6 -4 9
-11 6 -16 -3 -4 4 -6 15 -3 11 3 20 9 20 14 0 5 9 9 20 9 11 0 20 -7 20 -15 0
-8 -9 -15 -20 -15 -11 0 -20 -6 -20 -14 0 -26 24 -23 52 6 26 27 52 36 61 21
2 -5 7 -20 11 -36 5 -21 2 -29 -11 -34 -10 -4 -21 0 -27 9 -9 15 -13 14 -39
-4 -28 -20 -31 -20 -42 -5 -14 20 -32 22 -37 6 -3 -8 -10 -8 -26 2 -18 11 -26
12 -43 1 -18 -11 -23 -11 -35 5 -18 25 -17 43 4 59 15 11 17 10 20 -12 2 -13
7 -24 12 -24z m3282 8 c-7 -7 -12 -8 -12 -2 0 6 3 14 7 17 3 4 9 5 12 2 2 -3
-1 -11 -7 -17z m-3532 -32 c0 -3 -4 -8 -10 -11 -5 -3 -10 -1 -10 4 0 6 5 11
10 11 6 0 10 -2 10 -4z m2580 -10 c0 -8 -4 -17 -9 -21 -12 -7 -24 12 -16 25 9
15 25 12 25 -4z m940 3 c0 -5 8 -9 18 -7 9 1 18 -2 20 -7 1 -6 -6 -11 -18 -13
-11 -2 -24 -11 -30 -21 -8 -15 -6 -17 14 -14 27 5 39 -8 30 -31 -7 -18 -43
-13 -56 7 -10 16 -57 -12 -73 -43 -7 -14 -22 -34 -34 -44 -13 -12 -21 -31 -21
-53 0 -18 -4 -33 -10 -33 -24 0 -9 67 23 106 18 21 41 53 51 69 48 78 86 115
86 84z m290 1 c0 -5 -4 -10 -10 -10 -5 0 -10 5 -10 10 0 6 5 10 10 10 6 0 10
-4 10 -10z m10 -51 c0 -10 -5 -21 -11 -24 -13 -9 -15 -7 -23 27 -5 23 -3 25
14 21 11 -3 20 -14 20 -24z m-3496 -25 c9 -24 7 -79 -4 -90 -5 -5 -6 -24 0
-49 21 -90 5 -185 -32 -185 -24 0 -28 11 -14 45 9 22 10 37 2 58 -9 24 -8 31
7 41 20 16 23 36 3 36 -18 0 -31 112 -16 140 13 24 45 26 54 4z m673 -10 c11
-15 13 -15 13 -2 0 19 71 33 81 17 5 -8 12 -8 25 -1 21 12 133 4 152 -11 11
-9 10 -12 -3 -20 -11 -5 -13 -13 -7 -20 5 -7 10 -19 10 -27 1 -8 3 -53 6 -99
3 -48 1 -91 -5 -102 -12 -23 -37 -25 -45 -4 -8 20 -21 19 -50 -4 -27 -22 -22
-31 19 -31 26 0 28 -3 22 -22 -18 -54 -1 -128 29 -128 6 0 5 4 -3 9 -14 9 -7
51 9 51 14 0 18 -12 29 -96 14 -97 9 -114 -31 -114 -28 0 -29 -1 -28 -47 0
-27 -2 -65 -6 -86 -6 -37 -6 -37 23 -35 16 1 34 -1 41 -6 16 -9 15 -51 0 -76
-10 -15 -10 -27 -1 -49 8 -21 8 -32 0 -40 -8 -8 -8 -14 1 -23 15 -15 16 -84 2
-93 -5 -3 -10 -15 -10 -26 0 -12 -7 -19 -20 -19 -12 0 -20 -7 -20 -16 0 -13 3
-14 15 -4 8 6 22 10 31 8 15 -3 17 -13 15 -68 -1 -36 -8 -71 -14 -78 -8 -11
-7 -16 6 -23 21 -12 22 -48 2 -77 -12 -17 -13 -26 -5 -42 15 -29 5 -41 -26
-30 l-24 10 16 -32 c16 -31 16 -32 -12 -55 -24 -19 -26 -25 -14 -32 8 -6 18
-7 22 -5 5 3 7 -7 6 -23 -3 -32 15 -44 20 -13 4 27 27 20 28 -9 1 -12 4 -24 8
-28 3 -3 1 -12 -5 -19 -15 -18 -1 -57 18 -50 8 3 19 6 24 6 5 0 9 15 9 34 0
47 17 54 49 22 20 -21 23 -28 13 -35 -16 -10 -13 -42 5 -48 6 -2 14 5 18 16 8
27 35 27 35 1 0 -11 -5 -20 -11 -20 -5 0 -7 -5 -4 -10 4 -6 11 -8 16 -5 11 7
11 5 11 -110 -1 -55 -5 -91 -11 -93 -6 -2 -16 -13 -22 -24 -8 -15 -7 -24 7
-39 9 -10 12 -19 6 -19 -6 0 -12 5 -14 12 -7 20 -28 -2 -28 -29 0 -15 -7 -35
-17 -45 -10 -11 -12 -18 -4 -18 22 0 30 -43 13 -73 -14 -23 -15 -31 -3 -60 19
-46 25 -92 13 -113 -7 -13 -7 -25 0 -37 13 -25 -3 -41 -31 -32 -27 8 -29 60
-4 88 17 18 17 20 1 31 -12 9 -19 31 -22 72 -2 32 -7 67 -11 78 -6 13 -3 21 9
28 16 9 16 11 -3 29 -27 25 -26 35 2 43 20 6 21 7 5 20 -10 7 -21 27 -24 44
-4 18 -14 32 -25 35 -10 3 -19 1 -19 -4 0 -5 -7 -9 -15 -9 -8 0 -15 -7 -15
-15 0 -8 -4 -15 -10 -15 -5 0 -10 12 -10 26 0 34 -24 26 -28 -10 -3 -23 -6
-25 -18 -15 -13 10 -15 2 -14 -62 0 -41 -1 -87 -2 -104 -1 -16 0 -37 3 -45 3
-11 -3 -14 -18 -13 -31 4 -31 -29 -1 -42 27 -12 34 -40 18 -70 -9 -17 -9 -28
-1 -44 14 -26 7 -41 -20 -41 -14 0 -19 7 -19 25 0 22 -4 25 -32 23 -29 -3 -32
0 -34 28 -1 25 4 35 29 49 21 13 26 20 17 23 -8 2 -22 6 -30 9 -8 3 -23 5 -33
4 -9 -1 -20 6 -24 16 -9 27 -24 43 -34 37 -5 -3 -4 -15 3 -27 7 -12 11 -25 10
-30 -1 -4 11 -10 28 -13 31 -7 40 -27 16 -41 -14 -9 -28 -63 -15 -63 4 0 14
-6 21 -13 18 -19 12 -177 -7 -177 -17 0 -24 20 -15 45 10 28 0 95 -14 95 -7 0
-10 -21 -9 -62 1 -35 2 -71 3 -80 0 -13 8 -17 28 -16 15 1 33 6 40 11 7 6 12
6 12 -1 0 -11 30 -25 37 -18 3 2 -2 15 -11 28 -14 21 -14 27 -2 43 12 17 12
24 0 47 -18 35 -18 35 12 42 44 11 53 -7 51 -99 -1 -46 -5 -87 -10 -91 -11
-12 -8 -24 7 -24 10 0 12 -12 10 -45 -2 -25 0 -55 5 -67 5 -14 4 -32 -2 -45
-7 -16 -7 -31 2 -50 8 -17 9 -29 2 -36 -5 -5 -7 -23 -4 -38 4 -22 1 -30 -13
-36 -11 -3 -23 -12 -27 -20 -4 -7 -13 -13 -18 -13 -6 0 -7 5 -4 10 3 6 1 10
-5 10 -17 0 -59 53 -60 74 0 15 -3 17 -12 8 -9 -9 -7 -16 6 -31 21 -23 13 -49
-10 -30 -12 9 -14 6 -14 -20 0 -17 -4 -31 -10 -31 -5 0 -10 -16 -10 -36 0 -28
-3 -35 -17 -32 -24 4 -39 103 -21 136 9 18 9 25 0 30 -6 4 -15 39 -20 78 -7
66 -7 71 10 66 22 -5 24 13 3 22 -21 8 -20 74 2 98 11 12 12 18 4 18 -9 0 -11
10 -6 33 6 26 5 30 -6 20 -17 -17 -46 -16 -52 1 -3 8 -9 43 -13 77 -6 52 -4
64 10 75 17 12 17 14 0 38 -13 21 -16 40 -11 86 3 33 1 63 -4 66 -15 9 -10 46
7 66 16 16 16 25 2 108 -12 72 -12 94 -2 107 9 14 9 22 -3 40 -10 15 -13 33
-9 51 4 15 7 37 7 50 -1 14 7 26 22 32 16 6 17 9 5 9 -9 1 -20 6 -23 11 -13
21 -14 244 -2 252 9 6 9 12 0 27 -10 15 -9 22 1 30 37 31 70 -46 36 -84 -19
-22 -16 -45 6 -45 19 0 18 -19 -1 -26 -8 -4 -12 -10 -9 -16 3 -5 13 -3 23 7
16 14 20 14 42 -3 16 -13 37 -18 64 -17 55 4 55 4 55 14 0 5 -22 8 -49 6 -74
-6 -88 11 -81 95 1 8 -2 25 -5 38 -7 20 -4 22 26 22 30 0 31 1 14 13 -20 15
-30 108 -15 137 5 10 2 23 -11 39 -14 18 -19 19 -19 7 0 -25 -29 -19 -40 9 -5
14 -16 25 -24 25 -8 0 -18 9 -21 20 -7 23 10 50 31 50 24 0 15 18 -15 31 -22
10 -27 17 -19 26 6 7 7 24 3 40 -13 49 -15 242 -3 249 6 4 32 9 57 11 53 5 58
8 42 26 -6 8 -9 22 -5 31 5 12 0 16 -19 16 -38 0 -42 27 -6 46 33 17 34 37 2
42 -18 3 -22 13 -29 85 -4 45 -7 89 -5 97 1 8 2 24 1 35 0 11 -2 40 -3 65 -2
41 -4 45 -26 42 -18 -3 -22 0 -18 12 4 9 2 27 -3 40 -6 17 -4 27 8 39 14 15
14 17 -1 23 -20 7 -22 35 -5 52 10 10 10 15 1 20 -16 10 -28 62 -14 62 6 0 11
7 11 15 0 8 -4 15 -10 15 -5 0 -10 5 -10 11 0 8 4 8 14 0 17 -14 31 2 22 25
-8 22 74 11 91 -12z m-499 -22 c2 -24 -2 -38 -15 -47 -14 -11 -16 -16 -5 -26
15 -16 16 -39 0 -39 -29 0 -48 33 -48 85 0 59 5 67 40 63 20 -2 26 -9 28 -36z
m943 16 c14 -22 10 -31 -11 -25 -16 4 -20 0 -20 -18 0 -13 4 -26 9 -29 9 -6
20 -121 23 -229 1 -38 -3 -62 -11 -67 -10 -6 -9 -17 3 -55 16 -46 17 -149 2
-174 -4 -6 -3 -11 3 -11 5 0 10 -49 10 -120 0 -71 -4 -120 -9 -120 -14 0 -12
-34 2 -48 15 -15 21 -279 7 -288 -6 -3 -7 -18 -4 -33 5 -23 1 -29 -20 -39 -38
-18 -69 -1 -85 47 -19 59 -4 107 33 104 27 -2 38 19 17 32 -6 4 -8 21 -4 40 3
18 1 42 -5 53 -7 14 -8 23 -1 27 15 10 12 35 -5 35 -8 0 -15 6 -15 14 0 8 -6
16 -14 19 -10 4 -13 19 -11 49 2 24 4 44 4 46 1 1 10 -2 21 -8 12 -6 20 -7 20
-1 0 5 3 17 6 26 4 9 3 15 -2 14 -37 -6 -57 39 -47 107 5 41 7 43 23 29 23
-21 30 -19 30 10 0 17 -6 25 -17 25 -13 0 -14 3 -5 12 7 7 12 18 12 25 0 20
-38 16 -43 -4 -3 -10 -5 -1 -6 20 -1 27 4 39 17 44 19 8 53 46 46 53 -3 2 -9
-2 -15 -10 -8 -13 -12 -12 -27 6 -12 14 -17 37 -16 80 2 130 2 134 25 134 18
0 20 -4 14 -29 -3 -17 -2 -32 4 -36 7 -3 11 3 12 17 2 84 1 106 -5 131 -5 16
-15 27 -25 27 -34 0 -56 94 -30 126 12 15 100 8 110 -8z m-621 2 c0 -5 -4 -10
-10 -10 -5 0 -10 5 -10 10 0 6 5 10 10 10 6 0 10 -4 10 -10z m787 -6 c3 -9 1
-25 -5 -35 -7 -10 -12 -30 -12 -44 0 -30 -25 -34 -40 -6 -5 11 -10 38 -10 60
0 39 2 41 30 41 19 0 33 -6 37 -16z m-951 -19 c8 -34 -1 -55 -26 -55 -15 0
-20 7 -20 24 0 56 34 79 46 31z m1052 12 c16 -19 25 -64 16 -79 -4 -7 -7 -28
-5 -46 2 -25 -1 -33 -11 -30 -7 3 -12 17 -11 32 1 21 -2 26 -22 26 -22 0 -24
4 -23 43 2 60 29 87 56 54z m172 -30 c0 -55 -13 -67 -70 -67 -56 0 -62 5 -47
37 9 21 15 24 44 18 20 -4 33 -2 33 5 0 5 -4 10 -10 10 -5 0 -10 9 -10 20 0
16 7 20 30 20 29 0 30 -2 30 -43z m150 28 c7 -9 10 -18 7 -22 -4 -3 -2 -14 4
-25 7 -14 7 -23 -2 -34 -9 -12 -9 -20 1 -38 8 -17 9 -29 2 -42 -5 -10 -6 -29
-2 -46 5 -17 5 -30 -2 -34 -20 -12 -40 25 -45 82 -4 47 -2 60 12 70 16 12 16
14 1 29 -23 24 -20 75 4 75 4 0 13 -7 20 -15z m238 -69 c2 -47 -1 -72 -9 -77
-10 -6 -10 -11 0 -23 9 -11 11 -31 6 -65 -4 -33 -3 -51 5 -56 9 -5 10 -1 6 13
-5 15 -1 24 14 32 18 10 22 8 27 -9 3 -11 9 -18 15 -15 5 3 4 12 -4 21 -10 12
-9 17 5 28 17 12 17 15 -3 48 -16 27 -18 40 -11 60 5 14 15 28 21 32 7 4 3 15
-10 32 -19 24 -19 28 -5 42 21 21 48 4 55 -35 l6 -29 7 33 c10 48 37 43 37 -7
0 -39 -11 -54 -65 -86 -17 -10 -17 -12 -1 -27 9 -9 16 -20 16 -24 0 -4 7 -15
16 -25 15 -16 15 -20 0 -41 -22 -30 -20 -38 7 -35 19 2 22 -3 25 -36 3 -29 -1
-39 -15 -44 -10 -3 -21 -12 -26 -19 -4 -7 -14 -11 -22 -8 -9 4 -15 0 -15 -10
0 -19 3 -18 -37 -7 -36 11 -52 -1 -33 -24 14 -17 4 -55 -19 -72 -14 -10 -14
-13 0 -30 18 -20 15 -43 -7 -43 -29 0 -57 136 -30 146 11 4 10 14 -3 50 -12
35 -13 48 -4 63 7 10 9 22 5 26 -12 11 -9 279 2 287 29 21 41 3 44 -66z m327
46 c5 14 18 17 61 16 62 -2 84 -21 58 -50 -14 -15 -14 -19 1 -41 18 -28 12
-75 -11 -84 -10 -4 -11 -10 -4 -23 21 -40 2 -54 -32 -23 -17 15 -18 15 -18 0
0 -10 5 -17 10 -17 6 0 10 -9 10 -20 0 -15 7 -20 26 -20 21 0 25 -4 22 -22 -2
-15 -11 -24 -24 -26 -28 -4 -41 -62 -14 -62 9 0 25 -6 36 -14 19 -14 19 -15 1
-67 -17 -47 -17 -53 -3 -61 25 -14 19 -28 -13 -28 -26 0 -29 -3 -35 -46 -3
-26 -6 -60 -6 -75 0 -20 -5 -29 -16 -29 -9 0 -18 -9 -21 -20 -5 -20 -23 -28
-23 -10 0 6 -9 10 -19 10 -11 0 -22 4 -26 10 -3 5 -13 6 -22 3 -9 -4 -21 1
-29 12 -15 20 -19 116 -6 129 4 4 8 33 9 64 2 32 3 64 4 73 0 11 7 15 19 12
12 -3 20 2 25 16 5 16 12 19 35 15 22 -5 31 -2 40 15 6 12 9 25 6 30 -3 5 1
14 9 21 17 14 20 40 5 40 -5 0 -10 8 -10 18 0 27 -20 42 -50 35 -32 -6 -36 -1
-45 48 -5 27 -2 40 11 53 13 13 14 20 5 25 -16 10 -22 82 -9 99 8 10 13 9 24
-5 12 -17 13 -17 19 -1z m340 -2 c5 -8 11 -7 21 1 19 15 37 -1 32 -27 -3 -14
-12 -19 -36 -18 -42 2 -41 -9 4 -25 27 -10 34 -17 32 -34 -2 -15 -9 -21 -20
-19 -12 2 -18 -4 -18 -18 0 -13 7 -20 19 -20 16 0 20 -8 23 -37 2 -28 7 -37
18 -34 8 2 26 3 39 2 16 -1 21 3 18 13 -4 10 0 12 16 8 20 -5 20 -4 8 11 -11
14 -11 20 0 33 15 18 13 75 -3 85 -6 4 -8 11 -4 17 3 6 -10 13 -34 17 -32 5
-40 11 -40 29 0 18 6 22 40 23 37 2 41 -1 55 -33 9 -22 21 -34 34 -34 28 0 36
-18 18 -38 -13 -14 -14 -25 -5 -62 5 -25 13 -70 17 -100 l7 -55 19 43 c11 23
24 42 30 42 15 0 36 53 45 118 6 46 5 60 -8 75 -19 22 -5 40 29 35 21 -3 25
-10 32 -62 7 -49 5 -65 -10 -93 -9 -18 -22 -33 -28 -33 -5 0 -16 -15 -24 -32
-8 -18 -25 -47 -38 -64 -13 -17 -23 -36 -23 -42 0 -6 -11 -28 -25 -48 -14 -20
-25 -49 -25 -63 0 -15 -14 -41 -32 -60 -29 -33 -31 -33 -44 -16 -8 10 -14 15
-14 10 0 -5 10 -19 21 -32 20 -20 20 -23 6 -29 -12 -4 -15 -13 -11 -30 5 -18
2 -24 -10 -24 -11 0 -16 -9 -16 -32 0 -17 -6 -39 -13 -47 -7 -9 -23 -59 -36
-111 -25 -103 -41 -150 -53 -150 -11 0 -10 25 3 54 16 33 5 63 -16 46 -9 -7
-18 -10 -21 -7 -4 3 -7 50 -8 105 -2 54 -6 104 -10 110 -4 7 -6 25 -5 40 2 15
0 33 -4 40 -15 23 3 34 29 17 34 -22 30 0 -5 33 -26 24 -30 34 -30 84 0 39 5
60 14 66 12 6 12 13 0 49 -16 47 -14 178 3 195 16 16 15 26 -4 30 -24 5 -28
85 -6 98 22 12 39 12 47 0z m3205 -20 c0 -5 -2 -10 -4 -10 -3 0 -8 5 -11 10
-3 6 -1 10 4 10 6 0 11 -4 11 -10z m-5318 -44 c-3 -5 -9 -1 -13 10 -12 31 -10
39 5 19 8 -11 12 -24 8 -29z m1488 15 c0 -6 -4 -13 -10 -16 -5 -3 -10 1 -10 9
0 9 5 16 10 16 6 0 10 -4 10 -9z m3850 -1 c0 -5 -4 -10 -10 -10 -5 0 -10 5
-10 10 0 6 5 10 10 10 6 0 10 -4 10 -10z m-4247 -55 c-7 -19 -17 -19 -32 -1
-10 11 -8 15 6 18 25 6 33 0 26 -17z m-1249 -4 c11 -17 8 -213 -3 -224 -15
-15 -14 -42 2 -56 15 -12 11 -71 -4 -71 -5 0 -9 -7 -9 -15 0 -8 7 -15 17 -15
15 0 15 -1 0 -18 -13 -14 -14 -21 -5 -30 9 -9 9 -15 1 -23 -9 -9 -18 -8 -38 5
-21 14 -25 23 -21 42 4 13 2 33 -4 44 -8 16 -6 24 11 41 12 12 17 24 12 28
-16 11 -32 103 -22 129 5 13 5 31 1 40 -12 25 -7 98 7 116 15 17 47 21 55 7z
m1153 -7 c8 -20 -8 -36 -26 -25 -15 10 -8 41 9 41 6 0 13 -7 17 -16z m583 -5
c0 -6 -4 -7 -10 -4 -5 3 -10 11 -10 16 0 6 5 7 10 4 6 -3 10 -11 10 -16z
m-1033 -5 c8 -21 -19 -38 -30 -18 -9 16 -1 34 14 34 5 0 12 -7 16 -16z m229
-8 c7 -29 -1 -46 -22 -46 -9 0 -14 11 -14 35 0 41 26 49 36 11z m-1114 -26 c0
-16 1 -36 2 -42 1 -7 -6 -13 -14 -13 -9 0 -14 8 -13 20 1 10 -3 27 -7 36 -10
18 -4 29 17 29 7 0 14 -12 15 -30z m1458 -51 c0 -5 8 -9 18 -7 11 2 17 -3 16
-14 -2 -17 11 -22 49 -19 14 2 17 -7 17 -58 0 -34 -4 -61 -10 -61 -5 0 -10 5
-10 12 0 14 -30 48 -42 48 -5 0 0 -15 11 -34 12 -18 21 -42 21 -54 0 -11 8
-22 20 -25 28 -7 26 -45 -5 -87 -28 -38 -51 -54 -64 -45 -5 3 -12 1 -16 -5 -3
-5 5 -15 19 -21 22 -10 28 -9 45 12 15 19 22 21 32 12 11 -11 13 -33 8 -103
-1 -14 1 -33 6 -44 7 -16 5 -17 -16 -11 -13 4 -29 14 -35 23 -18 24 -49 11
-51 -23 -1 -17 1 -22 3 -12 8 24 51 22 59 -3 3 -11 12 -20 20 -20 7 0 15 -5
17 -12 7 -21 -4 -68 -17 -68 -18 0 -28 -30 -15 -45 8 -9 7 -13 -2 -12 -36 1
-56 -4 -61 -16 -4 -10 4 -13 26 -13 18 1 37 5 43 9 18 11 36 -19 32 -55 -4
-44 -40 -48 -48 -4 l-5 28 -20 -22 c-18 -20 -18 -22 -2 -31 23 -13 23 -52 0
-47 -11 2 -20 18 -26 46 -9 45 -27 58 -27 19 0 -29 28 -87 41 -87 5 0 17 5 27
11 12 7 25 7 45 0 21 -8 27 -17 27 -40 0 -15 -7 -34 -15 -41 -14 -12 -14 -15
1 -31 9 -10 13 -22 10 -28 -4 -6 -2 -19 4 -30 7 -13 7 -22 0 -26 -18 -11 -11
-84 10 -105 l20 -20 -21 0 c-16 0 -19 -4 -14 -17 8 -19 8 -30 2 -73 -2 -14 3
-32 10 -41 22 -26 -7 -43 -62 -35 -40 6 -46 11 -53 39 -6 25 -14 33 -35 35
-15 2 -27 8 -27 13 0 20 -18 8 -22 -16 -4 -18 0 -26 13 -30 11 -4 19 -13 19
-21 0 -8 8 -14 18 -14 23 0 45 -45 36 -72 -4 -13 2 -26 18 -41 27 -26 53 -76
49 -97 -2 -8 -10 -20 -19 -28 -15 -12 -15 -12 4 -7 14 4 24 0 27 -9 4 -10 1
-13 -9 -9 -8 3 -14 -1 -14 -8 0 -17 30 -49 46 -49 7 0 17 -6 21 -14 4 -8 19
-16 33 -18 20 -2 26 -9 28 -35 3 -28 0 -33 -18 -33 -19 0 -21 -4 -16 -25 5
-18 2 -25 -9 -25 -15 0 -20 -25 -15 -77 1 -15 -4 -23 -14 -23 -20 0 -20 -17 0
-37 9 -10 13 -25 10 -39 -3 -13 -1 -34 6 -48 14 -31 4 -45 -21 -29 -17 10 -17
8 -10 -30 4 -23 8 -44 9 -47 0 -10 -90 -8 -96 2 -3 5 4 20 16 33 22 24 13 42
-15 31 -23 -9 -17 12 11 41 20 20 23 28 12 34 -7 5 -17 7 -23 5 -12 -4 -14 83
-2 102 5 6 5 18 0 25 -4 6 -8 21 -9 32 -3 72 -5 85 -17 85 -15 0 -41 -80 -30
-91 5 -5 7 -25 5 -44 -3 -26 -9 -35 -23 -35 -25 0 -24 -12 1 -28 14 -8 20 -23
20 -49 0 -138 -2 -146 -41 -136 -16 5 -19 15 -19 69 0 35 4 64 9 64 6 0 6 12
-1 31 -8 23 -7 41 3 71 12 37 11 42 -7 57 -11 9 -19 22 -16 29 2 7 -2 19 -8
27 -10 12 -10 18 0 30 10 12 9 15 -4 15 -9 0 -25 5 -36 12 -25 16 -30 9 -45
-54 -9 -43 -16 -54 -34 -56 -30 -5 -52 15 -31 28 12 7 12 13 1 34 -8 13 -11
35 -8 47 3 13 1 29 -5 36 -8 10 -7 18 5 31 12 13 13 22 5 35 -14 25 -1 35 16
12 9 -13 15 -15 20 -6 11 17 0 41 -19 41 -14 0 -20 17 -16 48 1 6 -3 12 -10
12 -6 0 -8 7 -5 16 4 9 1 23 -5 30 -9 11 -8 18 4 32 9 10 13 27 10 43 -4 20 1
31 17 42 l22 15 -21 21 c-26 26 -38 86 -21 106 7 8 23 15 36 15 15 0 24 6 24
15 0 11 -7 14 -24 9 -40 -10 -51 5 -24 33 l23 25 -24 20 -25 19 37 34 c41 38
46 49 19 41 -24 -8 -55 47 -50 89 2 25 8 31 33 33 17 2 34 8 39 13 6 5 18 9
27 9 26 0 34 53 13 85 -20 30 -9 66 25 85 17 9 23 6 37 -15 14 -22 18 -23 31
-10 8 8 26 15 41 16 24 0 25 1 7 8 -11 5 -28 4 -39 -1 -15 -8 -23 -5 -41 18
-13 16 -20 34 -18 41 4 9 -5 13 -26 13 -32 0 -41 -16 -20 -37 6 -6 8 -16 5
-22 -12 -18 -46 7 -46 33 0 13 -7 26 -15 30 -19 7 -21 -34 -3 -52 14 -14 4
-27 -16 -19 -21 8 -47 106 -35 129 8 14 6 32 -4 63 -9 26 -13 60 -10 85 5 35
10 42 34 47 24 4 29 11 29 34 0 23 -5 28 -27 31 -20 2 -28 9 -28 23 0 14 8 21
28 23 23 3 27 8 27 33 0 16 -4 29 -9 29 -14 0 -20 37 -8 49 7 7 7 17 0 33 -17
36 -11 133 7 133 9 0 16 -11 18 -27 2 -19 9 -28 21 -28 9 0 23 -6 29 -12 10
-10 17 -10 31 -1 14 9 23 8 38 -2 23 -16 38 -9 23 10 -7 9 -6 16 5 25 8 7 15
20 15 30 0 30 13 30 32 0 10 -17 18 -35 18 -41z m380 24 c0 -13 -3 -13 -15 -3
-8 7 -15 16 -15 21 0 5 7 6 15 3 8 -4 15 -13 15 -21z m-507 1 c9 -10 -4 -34
-19 -34 -8 0 -14 9 -14 20 0 19 19 27 33 14z m1557 -28 c0 -27 -15 -42 -25
-26 -8 13 3 50 16 50 5 0 9 -11 9 -24z m60 -36 c0 -23 -12 -31 -29 -21 -10 7
-11 13 -2 30 14 24 31 19 31 -9z m-3094 -17 c-10 -10 -19 5 -10 18 6 11 8 11
12 0 2 -7 1 -15 -2 -18z m1268 -2 c3 -4 1 -22 -4 -39 -5 -21 -4 -42 3 -62 9
-23 9 -33 0 -38 -6 -4 -13 -37 -14 -74 -2 -51 2 -70 14 -83 26 -25 22 -70 -7
-89 -14 -9 -27 -12 -30 -8 -2 4 -4 50 -4 102 -1 52 -3 141 -5 198 -4 101 -4
102 19 102 12 0 25 -4 28 -9z m-334 -13 c-1 -15 -24 -48 -34 -48 -12 0 -6 48
7 53 21 9 27 8 27 -5z m2430 3 c0 -6 -4 -13 -10 -16 -5 -3 -10 1 -10 9 0 9 5
16 10 16 6 0 10 -4 10 -9z m-3199 -21 c-2 -8 -5 -34 -5 -57 -1 -23 -7 -48 -13
-54 -10 -10 -10 -16 3 -30 13 -14 13 -21 3 -37 -10 -17 -10 -23 0 -36 12 -14
11 -19 -3 -35 -15 -16 -15 -20 -3 -28 18 -10 31 -79 17 -88 -17 -11 -11 -75
10 -102 11 -14 20 -36 20 -49 0 -12 5 -35 12 -51 11 -27 12 -26 18 30 8 64 16
79 30 57 8 -13 10 -12 10 2 0 9 6 18 13 21 9 3 9 8 -2 21 -12 15 -12 19 1 32
11 11 21 12 41 5 25 -10 39 -41 18 -41 -9 0 -6 -93 3 -108 3 -5 -2 -18 -10
-30 -13 -18 -19 -20 -36 -11 -16 9 -19 8 -16 -3 3 -7 18 -15 34 -18 26 -4 29
-10 32 -44 3 -28 -1 -42 -13 -49 -12 -6 -13 -12 -5 -21 5 -8 12 -65 14 -127 2
-63 5 -114 6 -114 1 0 3 -16 4 -35 4 -53 -4 -80 -24 -80 -10 0 -23 -6 -30 -14
-6 -8 -21 -16 -33 -18 -18 -2 -22 -10 -23 -43 0 -22 4 -48 9 -58 5 -12 4 -24
-4 -33 -6 -8 -9 -18 -5 -21 4 -4 11 -1 16 7 7 11 11 11 24 1 12 -10 15 -7 18
21 5 50 34 50 48 -1 11 -42 16 -164 7 -179 -3 -4 -2 -14 3 -22 5 -8 5 -21 -1
-32 -8 -14 -18 -16 -53 -12 -48 7 -58 0 -45 -33 7 -19 14 -21 48 -17 33 4 42
1 52 -17 8 -16 8 -23 0 -29 -7 -3 -9 -14 -5 -23 3 -10 0 -24 -7 -33 -10 -12
-10 -17 0 -23 8 -5 11 -28 10 -62 -1 -30 1 -101 4 -159 3 -59 1 -113 -5 -123
-6 -13 -5 -23 4 -34 13 -16 16 -182 3 -203 -3 -5 -15 -10 -26 -10 -26 0 -19
-24 8 -28 20 -3 47 -45 36 -56 -3 -3 -14 -1 -24 5 -13 7 -27 6 -45 -4 -23 -12
-24 -15 -10 -26 9 -8 16 -19 16 -26 0 -14 47 -17 56 -4 3 5 14 9 26 9 17 0 20
5 16 40 -2 22 0 40 4 40 5 0 13 11 18 25 5 14 14 25 19 25 20 0 29 -37 36
-145 3 -61 9 -118 12 -129 3 -10 0 -22 -6 -25 -8 -5 -8 -22 -2 -54 6 -36 5
-47 -5 -51 -8 -3 -14 -19 -14 -36 0 -20 -5 -30 -15 -30 -8 0 -15 -4 -15 -10 0
-5 5 -10 12 -10 6 0 9 -2 7 -5 -3 -2 -15 -2 -27 2 -18 4 -20 8 -11 19 6 8 8
22 4 31 -12 31 -15 105 -4 125 6 11 7 23 3 26 -4 4 -9 1 -11 -5 -3 -8 -14 -11
-29 -7 -28 7 -32 -10 -10 -35 11 -12 12 -25 6 -51 -4 -19 -8 -31 -9 -27 -1 5
-6 5 -11 2 -8 -5 -7 -11 1 -21 9 -11 9 -17 0 -28 -10 -11 -8 -17 6 -25 16 -9
16 -12 3 -21 -36 -24 -77 0 -44 25 18 13 17 14 -13 15 -23 0 -33 5 -33 15 0 9
-7 18 -15 21 -11 5 -15 21 -15 61 0 50 2 54 20 48 26 -8 26 2 0 23 -17 14 -21
30 -23 78 -1 37 4 68 11 77 10 11 9 17 -3 27 -8 7 -15 18 -15 24 0 22 -18 37
-48 41 -32 4 -32 4 -32 -39 0 -45 -10 -56 -51 -56 -20 0 -25 14 -32 85 -5 53
10 85 40 85 25 0 26 1 17 24 -3 9 -14 16 -24 16 -23 0 -31 43 -13 70 8 11 20
20 28 20 20 0 27 17 17 37 -6 10 -12 45 -15 77 -3 38 -10 64 -20 71 -32 23
-52 135 -27 150 6 4 7 12 3 18 -11 18 -11 410 0 425 6 8 5 17 -3 27 -15 18 -6
45 15 45 8 0 15 5 15 11 0 6 -6 9 -14 6 -10 -4 -15 5 -18 36 -5 42 8 87 24 87
4 0 8 4 8 10 0 5 -8 6 -17 3 -17 -7 -17 -6 0 11 9 9 18 32 19 49 3 67 5 84 12
96 4 7 3 18 -3 25 -6 7 -10 40 -9 72 3 55 5 59 28 62 14 2 29 7 33 11 10 10
-2 61 -13 61 -5 0 -6 -9 -3 -20 4 -13 0 -20 -9 -20 -25 0 -37 21 -27 47 6 17
6 30 -2 39 -6 7 -8 18 -4 24 9 14 32 13 38 -2 4 -10 8 -9 16 2 8 12 6 16 -13
18 -33 4 -61 68 -52 119 10 54 10 72 1 126 -6 36 -4 51 7 65 10 11 14 30 11
57 -2 22 -4 64 -3 94 0 29 -5 60 -11 67 -6 8 -9 24 -6 36 4 12 1 28 -5 35 -16
19 10 45 41 41 17 -2 25 -8 22 -18z m2869 -36 c0 -27 -4 -43 -10 -39 -11 7
-13 45 -4 69 10 26 14 18 14 -30z m210 -15 c0 -20 -15 -26 -25 -9 -9 15 3 43
15 35 5 -3 10 -15 10 -26z m-3240 -25 c0 -14 -4 -23 -10 -19 -5 3 -10 15 -10
26 0 10 5 19 10 19 6 0 10 -12 10 -26z m3339 10 c6 4 11 0 11 -9 0 -13 -4 -14
-20 -5 -11 6 -20 16 -20 23 0 8 3 8 9 -2 5 -7 14 -10 20 -7z m-1295 -29 c-4
-8 0 -23 7 -32 13 -14 15 -13 19 13 7 40 35 39 35 -1 1 -17 4 -36 8 -43 6 -8
2 -12 -12 -12 -25 0 -27 -13 -6 -30 8 -7 15 -24 15 -39 1 -14 1 -39 1 -55 1
-16 -5 -32 -11 -36 -12 -8 -11 -24 5 -62 5 -14 2 -18 -14 -18 -12 0 -21 5 -21
11 0 6 -7 8 -16 5 -9 -4 -28 1 -41 9 -21 14 -24 22 -21 72 3 64 23 87 58 65
24 -15 24 -13 5 24 -9 18 -22 29 -37 29 -18 0 -24 7 -26 29 -4 34 14 73 37 79
9 3 17 5 18 6 1 0 0 -6 -3 -14z m3863 -7 c-3 -8 -6 -5 -6 6 -1 11 2 17 5 13 3
-3 4 -12 1 -19z m-2897 -4 c0 -8 -5 -12 -10 -9 -6 4 -8 11 -5 16 9 14 15 11
15 -7z m-2750 -4 c0 -5 -5 -10 -11 -10 -5 0 -7 5 -4 10 3 6 8 10 11 10 2 0 4
-4 4 -10z m-266 -45 c4 -19 2 -43 -3 -53 -6 -11 -6 -24 0 -33 13 -21 11 -39
-4 -39 -8 0 -22 16 -33 35 -20 37 -28 42 -40 24 -4 -7 1 -16 10 -21 9 -5 16
-15 16 -23 0 -7 9 -16 19 -20 25 -8 33 -29 36 -96 2 -55 2 -55 -34 -66 -27 -9
-38 -9 -43 0 -13 20 -9 72 7 111 14 33 14 37 0 42 -8 4 -15 14 -15 24 0 11 -4
22 -10 25 -18 11 -11 54 12 77 13 13 22 29 20 35 -2 8 8 13 26 13 26 0 31 -4
36 -35z m2980 26 c8 -12 -14 -71 -25 -71 -10 0 -11 25 -3 58 7 23 19 29 28 13z
m2960 -7 c15 -14 17 -14 32 1 23 22 36 6 39 -45 3 -45 -5 -54 -35 -45 -13 4
-20 15 -20 31 0 13 -4 24 -10 24 -5 0 -10 -9 -10 -20 0 -13 -7 -20 -20 -20
-17 0 -20 7 -20 38 0 54 15 66 44 36z m-2905 -65 c-11 -21 -12 -21 -21 -4 -8
13 -7 20 6 27 9 5 17 19 17 31 2 17 3 16 6 -5 2 -15 -1 -37 -8 -49z m2808 29
c-3 -8 -6 -5 -6 6 -1 11 2 17 5 13 3 -3 4 -12 1 -19z m283 1 c0 -5 -4 -9 -10
-9 -5 0 -10 7 -10 16 0 8 5 12 10 9 6 -3 10 -10 10 -16z m-3284 -24 c-6 -17
-26 -20 -26 -5 0 16 24 40 28 29 2 -5 1 -16 -2 -24z m3314 -21 c0 -9 -5 -14
-12 -12 -18 6 -21 28 -4 28 9 0 16 -7 16 -16z m-3060 -54 c0 -33 -17 -49 -26
-26 -8 22 4 68 16 61 6 -3 10 -19 10 -35z m-70 -7 c0 -19 -3 -24 -10 -17 -6 6
-8 18 -4 27 9 24 14 21 14 -10z m-1094 -27 c-3 -14 -1 -26 5 -28 16 -5 -1 -38
-21 -38 -15 0 -18 7 -15 43 3 51 1 47 21 47 12 0 15 -6 10 -24z m884 -8 c0
-17 -28 -7 -33 11 -4 17 -2 18 14 8 10 -6 19 -15 19 -19z m-3130 -8 c0 -5 -2
-10 -4 -10 -3 0 -8 5 -11 10 -3 6 -1 10 4 10 6 0 11 -4 11 -10z m697 -26 c3
-9 0 -20 -8 -24 -18 -12 -50 7 -43 25 8 20 43 19 51 -1z m2433 -15 c0 -5 -5
-9 -11 -9 -7 0 -18 -8 -25 -17 -13 -17 -15 -17 -29 2 -14 18 -14 21 0 31 16
12 65 7 65 -7z m280 6 c0 -17 -2 -18 -25 -9 -13 5 -14 8 -3 15 19 13 28 11 28
-6z m-50 -1 c0 -3 -4 -14 -10 -24 -12 -23 11 -45 40 -37 12 3 20 0 20 -8 0 -9
-13 -12 -42 -11 -36 2 -43 6 -48 27 -9 35 0 59 21 59 11 0 19 -3 19 -6z
m-1770 -44 c0 -11 -7 -20 -15 -20 -8 0 -15 2 -15 4 0 2 -3 11 -6 20 -4 12 0
16 15 16 14 0 21 -6 21 -20z m1488 -22 c-7 -19 -38 -22 -38 -4 0 10 9 16 21
16 12 0 19 -5 17 -12z m-370 -63 c16 -74 11 -87 -30 -83 -28 2 -34 8 -39 33
l-6 30 -10 -25 c-10 -23 -11 -22 -18 24 -6 36 -4 50 6 57 21 13 26 11 34 -13
7 -22 7 -22 12 -3 14 65 34 58 51 -20z m-1134 13 c3 -13 6 -36 6 -52 0 -43
-16 -20 -23 32 -5 44 6 58 17 20z m1776 -29 c0 -17 -4 -28 -9 -25 -10 7 -20
53 -13 60 11 11 22 -7 22 -35z m-1755 -115 c15 -32 15 -37 0 -60 -11 -17 -13
-29 -6 -42 7 -12 5 -22 -7 -35 -15 -17 -15 -19 1 -28 20 -11 22 -40 5 -57 -9
-9 -8 -16 5 -30 20 -22 17 -79 -4 -93 -9 -6 -10 -12 -4 -16 6 -5 11 -19 11
-33 0 -14 4 -33 8 -42 7 -15 3 -18 -17 -18 -29 0 -38 17 -43 82 -3 40 0 50 21
66 l24 19 -22 22 c-16 16 -22 34 -22 69 0 26 4 50 10 54 5 4 4 16 -3 30 -26
49 -14 148 18 148 4 0 15 -16 25 -36z m-1269 -34 c0 -19 -4 -41 -9 -47 -6 -8
-5 -18 2 -27 12 -15 4 -103 -11 -112 -5 -3 -3 -13 5 -22 21 -24 11 -92 -13
-92 -15 0 -20 11 -26 58 -9 70 -7 101 7 118 9 11 8 18 -1 28 -6 8 -13 33 -15
54 -1 22 -6 45 -9 51 -12 19 5 32 37 29 29 -3 32 -6 33 -38z m2999 -29 c3 -5
1 -12 -5 -16 -5 -3 -10 1 -10 9 0 18 6 21 15 7z m65 -1 c7 12 10 11 16 -3 3
-9 4 -24 0 -32 -5 -13 -9 -13 -28 -3 -28 16 -38 29 -31 41 2 4 11 2 20 -4 12
-10 16 -10 23 1z m-300 -20 c0 -5 -4 -10 -10 -10 -5 0 -10 5 -10 10 0 6 5 10
10 10 6 0 10 -4 10 -10z m-2830 -54 c0 -3 -4 -8 -10 -11 -5 -3 -10 -1 -10 4 0
6 5 11 10 11 6 0 10 -2 10 -4z m3080 -45 c0 -17 -4 -33 -10 -36 -5 -3 -10 -17
-10 -30 0 -30 -10 -55 -21 -55 -14 0 -10 44 6 66 8 10 15 34 15 52 0 17 5 32
10 32 6 0 10 -13 10 -29z m-360 -32 c0 -22 -4 -38 -9 -35 -9 6 -12 55 -4 69 9
15 13 6 13 -34z m95 20 c4 -11 4 -23 1 -27 -10 -9 -39 25 -32 37 11 17 24 13
31 -10z m355 -32 c0 -5 -7 -7 -15 -3 -23 9 -45 -22 -45 -65 0 -57 -17 -48 -22
12 -2 41 1 53 15 60 9 5 17 19 17 29 0 19 1 19 25 -2 14 -12 25 -26 25 -31z
m3010 9 c0 -3 -4 -8 -10 -11 -5 -3 -10 -1 -10 4 0 6 5 11 10 11 6 0 10 -2 10
-4z m-3410 -51 c0 -15 -6 -25 -14 -25 -24 0 -30 22 -11 37 25 17 25 17 25 -12z
m446 -22 c-10 -10 -19 5 -10 18 6 11 8 11 12 0 2 -7 1 -15 -2 -18z m-389 -5
c-3 -8 -6 -5 -6 6 -1 11 2 17 5 13 3 -3 4 -12 1 -19z m3703 -19 c0 -10 -4 -19
-10 -19 -5 0 -10 12 -10 26 0 14 4 23 10 19 6 -3 10 -15 10 -26z m-3810 -11
c0 -16 -3 -19 -11 -11 -6 6 -8 16 -5 22 11 17 16 13 16 -11z m-1606 -7 c3 -4
19 -11 36 -14 33 -7 39 -27 15 -47 -12 -10 -19 -10 -27 -2 -27 27 -39 -1 -16
-37 14 -23 -4 -51 -33 -51 -15 0 -18 9 -18 72 0 46 4 75 12 80 16 10 25 10 31
-1z m1666 -31 c0 -5 -7 -10 -15 -10 -8 0 -15 5 -15 10 0 6 7 10 15 10 8 0 15
-4 15 -10z m3740 -30 c0 -16 -4 -30 -10 -30 -5 0 -10 14 -10 30 0 17 5 30 10
30 6 0 10 -13 10 -30z m-3693 -2 c-3 -8 -6 -5 -6 6 -1 11 2 17 5 13 3 -3 4
-12 1 -19z m343 1 c0 -5 -7 -9 -15 -9 -15 0 -20 12 -9 23 8 8 24 -1 24 -14z
m-1070 -9 c0 -5 -5 -10 -11 -10 -5 0 -7 5 -4 10 3 6 8 10 11 10 2 0 4 -4 4
-10z m4084 -6 c4 -10 1 -14 -6 -12 -15 5 -23 28 -10 28 5 0 13 -7 16 -16z
m-2967 -16 c-3 -8 -6 -5 -6 6 -1 11 2 17 5 13 3 -3 4 -12 1 -19z m-897 -32 c0
-3 -4 -8 -10 -11 -5 -3 -10 -1 -10 4 0 6 5 11 10 11 6 0 10 -2 10 -4z m1011
-52 c-6 -13 -15 -24 -21 -24 -13 0 -13 36 1 62 11 20 12 20 21 4 7 -12 7 -26
-1 -42z m-174 16 c-1 -17 -7 -30 -12 -30 -5 0 -11 13 -12 30 -2 21 2 30 12 30
10 0 14 -9 12 -30z m3196 7 c3 -8 1 -20 -4 -28 -6 -10 -9 -7 -9 14 0 29 5 35
13 14z m100 -2 c4 -8 2 -17 -3 -20 -6 -4 -10 3 -10 14 0 25 6 27 13 6z m187 5
c0 -5 -4 -10 -10 -10 -5 0 -10 5 -10 10 0 6 5 10 10 10 6 0 10 -4 10 -10z
m-6067 -22 c9 -39 -1 -120 -17 -137 -15 -14 -18 -14 -33 1 -13 14 -14 20 -4
32 7 8 8 17 3 20 -16 9 -20 56 -8 82 14 31 52 32 59 2z m599 -28 c-2 -25 -4
-66 -5 -92 -1 -25 -6 -50 -11 -55 -5 -4 -5 2 -1 15 5 19 2 25 -14 29 -15 4
-21 13 -21 34 0 19 -8 34 -25 45 -32 21 -32 44 -1 44 13 0 27 7 30 16 3 9 15
14 28 12 21 -3 23 -8 20 -48z m2207 24 c-15 -18 -22 -13 -13 10 3 9 10 13 16
10 5 -3 4 -12 -3 -20z m-2035 -16 c5 -25 2 -36 -11 -46 -15 -11 -20 -10 -30 5
-16 21 -17 45 -1 61 21 21 35 13 42 -20z m989 -8 c6 -24 -8 -36 -17 -14 -8 22
-7 34 3 34 5 0 11 -9 14 -20z m4192 -29 c0 -23 -22 -24 -28 -1 -4 16 -1 20 11
18 9 -2 17 -10 17 -17z m-3397 -28 c-3 -17 -98 -29 -98 -13 0 14 31 28 50 23
10 -3 21 0 25 6 9 15 27 3 23 -16z m3502 17 c0 -5 -4 -10 -10 -10 -5 0 -10 5
-10 10 0 6 5 10 10 10 6 0 10 -4 10 -10z m-3906 -15 c6 -16 -12 -65 -24 -65
-16 0 -18 41 -4 47 8 3 13 12 10 19 -3 8 -1 14 3 14 5 0 11 -7 15 -15z m-2664
-66 c0 -44 -4 -68 -10 -64 -5 3 -10 35 -10 71 0 36 4 64 10 64 6 0 10 -30 10
-71z m3109 39 c0 -31 -1 -31 -10 -10 -5 13 -7 28 -3 33 10 16 14 9 13 -23z
m176 -23 l-7 -55 31 6 c28 6 31 4 31 -17 0 -31 15 -53 29 -45 5 4 19 -2 30
-13 10 -10 28 -22 40 -26 12 -3 21 -12 21 -19 0 -15 84 -96 100 -96 5 0 10 -7
10 -15 0 -9 10 -19 23 -24 12 -5 43 -28 68 -52 26 -24 53 -50 60 -56 8 -7 23
-22 34 -34 11 -11 37 -30 58 -40 21 -11 35 -24 32 -29 -4 -6 2 -13 11 -17 10
-3 33 -23 53 -42 20 -20 56 -53 80 -73 23 -20 40 -41 36 -47 -8 -15 -85 -3
-107 16 -9 8 -28 16 -42 17 -14 0 -26 7 -26 14 0 6 -9 12 -20 12 -10 0 -24 9
-29 19 -6 11 -34 33 -63 51 -50 31 -52 31 -66 14 -14 -18 -14 -18 -8 0 5 15
-18 44 -106 133 -62 63 -150 152 -196 198 -45 46 -78 86 -72 90 17 10 11 35
-8 35 -41 0 -53 38 -27 86 8 16 15 37 15 47 0 9 5 17 11 17 7 0 8 -18 4 -55z
m99 40 c3 -8 1 -15 -4 -15 -6 0 -10 7 -10 15 0 8 2 15 4 15 2 0 6 -7 10 -15z
m3032 -30 c16 -46 18 -75 5 -75 -5 0 -16 -3 -24 -6 -17 -6 -42 26 -52 67 -4
18 -1 31 10 43 26 25 45 16 61 -29z m234 36 c0 -12 -29 -35 -36 -28 -11 10 5
37 21 37 8 0 15 -4 15 -9z m-3940 -11 c0 -5 -4 -10 -9 -10 -6 0 -13 5 -16 10
-3 6 1 10 9 10 9 0 16 -4 16 -10z m-1427 -24 c21 -16 22 -64 2 -93 -9 -13 -11
-24 -6 -28 6 -3 8 -12 4 -20 -3 -9 -1 -21 4 -28 5 -6 9 -32 8 -57 -1 -25 2
-50 7 -57 6 -8 3 -16 -11 -25 -19 -11 -19 -14 -4 -30 11 -12 13 -26 8 -50 -4
-18 -6 -50 -6 -70 1 -43 -2 -45 -28 -20 -23 22 -34 92 -21 128 8 21 8 29 -2
35 -10 7 -10 13 -1 28 9 14 9 29 2 56 -8 30 -7 40 5 54 9 10 13 21 9 24 -28
29 -35 123 -10 155 12 15 17 15 40 -2z m2137 -6 c0 -5 -2 -10 -4 -10 -3 0 -8
5 -11 10 -3 6 -1 10 4 10 6 0 11 -4 11 -10z m3050 0 c0 -5 -5 -10 -11 -10 -5
0 -7 5 -4 10 3 6 8 10 11 10 2 0 4 -4 4 -10z m-3020 -30 c0 -5 -4 -10 -9 -10
-6 0 -13 5 -16 10 -3 6 1 10 9 10 9 0 16 -4 16 -10z m-470 -30 c0 -5 -5 -10
-11 -10 -5 0 -7 5 -4 10 3 6 8 10 11 10 2 0 4 -4 4 -10z m3320 -20 c0 -19 -11
-26 -23 -14 -8 8 3 34 14 34 5 0 9 -9 9 -20z m-3533 -12 c-3 -8 -6 -5 -6 6 -1
11 2 17 5 13 3 -3 4 -12 1 -19z m283 2 c0 -5 -4 -10 -10 -10 -5 0 -10 5 -10
10 0 6 5 10 10 10 6 0 10 -4 10 -10z m3520 0 c0 -5 -4 -10 -10 -10 -5 0 -10 5
-10 10 0 6 5 10 10 10 6 0 10 -4 10 -10z m-3300 -90 c0 -11 -7 -20 -15 -20 -8
0 -15 9 -15 20 0 11 7 20 15 20 8 0 15 -9 15 -20z m3387 -22 c-3 -8 -6 -5 -6
6 -1 11 2 17 5 13 3 -3 4 -12 1 -19z m-3337 -1 c0 -14 -39 -41 -48 -33 -6 7
27 46 40 46 4 0 8 -6 8 -13z m-825 -37 c0 -7 -6 -15 -12 -17 -8 -3 -13 4 -13
17 0 13 5 20 13 18 6 -3 12 -11 12 -18z m1155 -10 c0 -5 -4 -10 -10 -10 -5 0
-10 5 -10 10 0 6 5 10 10 10 6 0 10 -4 10 -10z m-350 -56 c0 -14 -21 -19 -33
-7 -9 9 13 34 24 27 5 -3 9 -12 9 -20z m380 16 c0 -5 -4 -10 -10 -10 -5 0 -10
5 -10 10 0 6 5 10 10 10 6 0 10 -4 10 -10z m-1030 -45 c10 -13 9 -15 -9 -15
-12 0 -21 6 -21 15 0 8 4 15 9 15 5 0 14 -7 21 -15z m689 2 c6 -8 8 -17 4 -20
-7 -8 -33 11 -33 24 0 13 16 11 29 -4z m-644 -67 c-10 -11 -25 -20 -34 -19
-14 0 -14 1 -1 6 8 3 19 12 23 19 4 8 13 14 19 14 6 0 3 -9 -7 -20z m1149 5
c11 -8 16 -18 13 -22 -4 -4 -13 -1 -19 5 -7 7 -20 12 -30 12 -10 0 -18 5 -18
10 0 15 32 12 54 -5z m-384 -9 c0 -8 -4 -17 -9 -21 -12 -7 -24 12 -16 25 9 15
25 12 25 -4z m404 -52 c10 -4 15 -17 15 -38 -2 -30 -2 -30 -6 -3 -2 15 -11 27
-19 27 -8 0 -14 5 -14 10 0 12 3 12 24 4z m-1860 -13 c10 -16 14 -141 5 -146
-5 -4 -2 -17 7 -30 18 -27 14 -31 -36 -37 -19 -2 -25 -9 -25 -28 0 -15 6 -25
15 -26 8 -1 25 -2 38 -2 36 -3 29 -40 -9 -50 l-32 -8 -1 -74 c-1 -62 -4 -75
-18 -78 -24 -5 -29 22 -31 167 -2 114 0 124 18 135 42 23 47 53 11 62 -30 7
-38 27 -30 70 5 28 9 32 23 24 13 -6 20 -3 29 11 13 20 27 25 36 10z m-723
-41 c23 -13 24 -28 3 -52 -16 -16 -16 -18 0 -24 19 -7 22 -44 2 -44 -23 0 -45
45 -43 89 1 43 6 47 38 31z m-821 -58 c0 -13 -12 -22 -22 -16 -10 6 -1 24 13
24 5 0 9 -4 9 -8z m-10 -46 c0 -2 -7 -6 -15 -10 -8 -3 -15 -1 -15 4 0 6 7 10
15 10 8 0 15 -2 15 -4z m8 -124 c2 -49 -1 -82 -7 -82 -17 0 -24 20 -27 84 -5
68 0 90 19 84 8 -3 13 -32 15 -86z m842 72 c0 -9 -7 -22 -17 -29 -19 -14 -8
-39 13 -31 8 3 14 2 14 -3 0 -19 -23 -71 -31 -71 -23 0 -51 124 -32 143 14 14
53 7 53 -9z m2350 -54 c0 -5 -9 -10 -19 -10 -11 0 -23 5 -26 10 -4 6 5 10 19
10 14 0 26 -4 26 -10z m300 -35 c0 -8 -4 -15 -10 -15 -5 0 -10 7 -10 15 0 8 5
15 10 15 6 0 10 -7 10 -15z m-270 -15 c0 -5 -4 -10 -10 -10 -5 0 -10 5 -10 10
0 6 5 10 10 10 6 0 10 -4 10 -10z m-2260 -65 c0 -20 -5 -25 -24 -25 -26 0 -51
24 -41 40 3 5 19 10 36 10 24 0 29 -4 29 -25z m150 -5 c7 -13 8 -26 1 -38 -7
-12 -5 -22 6 -34 14 -16 14 -18 -1 -24 -25 -10 -49 19 -52 62 -2 20 -1 41 2
45 9 16 33 9 44 -11z m160 0 c0 -11 -7 -20 -15 -20 -27 0 -18 30 13 39 1 1 2
-8 2 -19z m-650 -25 c0 -7 -4 -16 -9 -19 -5 -3 -3 -23 5 -43 16 -46 18 -129 3
-139 -7 -4 -8 -18 -4 -38 13 -54 14 -111 2 -118 -8 -5 -8 -13 1 -30 6 -13 11
-37 10 -53 0 -17 2 -40 6 -51 4 -14 1 -27 -9 -37 -8 -9 -15 -22 -15 -31 0 -8
-4 -17 -9 -20 -13 -8 -32 19 -25 37 3 8 1 18 -4 21 -13 8 -2 59 17 73 14 10
14 15 2 35 -9 14 -15 56 -17 113 -1 50 -5 112 -9 139 -7 44 -6 49 10 43 31
-13 35 4 9 38 -21 28 -24 40 -19 67 4 18 9 36 12 41 7 11 43 -12 43 -28z m212
10 c14 -31 -6 -90 -23 -64 -12 19 -11 89 1 89 6 0 16 -11 22 -25z m2618 9 c0
-2 -9 -4 -21 -4 -11 0 -18 4 -14 10 5 8 35 3 35 -6z m-2185 -94 c-5 -8 -11 -8
-17 -2 -6 6 -7 16 -3 22 5 8 11 8 17 2 6 -6 7 -16 3 -22z m-305 0 c0 -16 -7
-20 -35 -20 -38 0 -38 0 -29 24 4 10 18 16 35 16 22 0 29 -5 29 -20z m153 -24
c24 -18 25 -137 1 -157 -26 -21 -54 21 -54 80 0 86 14 106 53 77z m-153 -33
c3 -3 -5 -12 -17 -20 -30 -20 -29 -48 2 -75 19 -16 22 -24 14 -35 -16 -18 -56
-16 -63 3 -8 22 -8 129 1 138 7 7 53 -1 63 -11z m545 -29 c0 -32 -4 -39 -19
-39 -15 0 -19 8 -20 35 -2 35 10 53 29 47 6 -2 10 -21 10 -43z m-225 -66 c0
-5 -7 -8 -15 -8 -15 0 -20 21 -8 33 7 7 23 -11 23 -25z m294 -57 c4 -23 1 -40
-9 -51 -11 -12 -12 -19 -4 -27 18 -18 2 -43 -26 -43 -25 0 -34 -14 -15 -25 6
-3 10 -1 10 5 0 23 34 4 41 -23 6 -22 3 -29 -14 -38 -17 -10 -24 -8 -40 12
l-20 24 6 -22 c6 -26 -4 -36 -26 -27 -20 7 -27 37 -14 60 7 13 7 19 -1 22 -7
2 -12 24 -12 51 0 26 -5 52 -10 57 -7 7 -7 19 -1 36 8 22 14 25 69 25 l60 0 6
-36z m-324 -38 c0 -13 -7 -26 -16 -30 -11 -4 -14 -12 -9 -27 4 -11 9 -49 12
-84 l5 -64 -28 4 -29 3 0 83 c0 45 -4 82 -8 82 -16 0 3 52 26 71 20 17 23 17
35 2 6 -9 12 -27 12 -40z m-132 24 c15 -18 0 -81 -21 -85 -13 -3 -17 4 -17 31
0 20 -3 42 -6 51 -8 20 28 22 44 3z m-1424 -25 c8 -33 6 -105 -5 -118 -8 -10
-3 -15 22 -21 l33 -9 0 -72 c1 -75 -5 -84 -36 -55 -17 15 -18 15 -18 -6 0 -12
7 -24 15 -27 23 -9 18 -31 -9 -38 -44 -11 -57 2 -52 49 4 28 0 54 -10 74 -12
25 -13 38 -5 62 7 21 7 37 1 49 -6 10 -10 42 -10 70 0 43 3 52 23 59 27 10 45
4 51 -17z m434 14 c21 -12 15 -67 -8 -73 -15 -4 -17 -9 -10 -23 23 -43 -7 -57
-34 -18 -15 22 -22 108 -10 121 7 7 46 3 62 -7z m1005 -155 c10 -51 4 -71 -21
-71 -38 0 -46 25 -26 75 11 25 23 43 29 42 5 -2 13 -23 18 -46z m-176 -17 c7
-18 -6 -45 -24 -51 -12 -4 -24 33 -16 53 7 19 32 18 40 -2z m-102 -14 c0 -16
-28 -25 -50 -16 -9 3 -12 12 -9 21 8 21 59 16 59 -5z m-441 -31 c-3 -5 -10 -7
-15 -3 -5 3 -7 10 -3 15 3 5 10 7 15 3 5 -3 7 -10 3 -15z m-6 -47 c3 -20 0
-23 -25 -20 -20 2 -29 9 -31 26 -3 20 0 23 25 20 20 -2 29 -9 31 -26z"/>
<path d="M1630 4735 c0 -8 5 -15 10 -15 6 0 10 7 10 15 0 8 -4 15 -10 15 -5 0
-10 -7 -10 -15z"/>
<path d="M1830 4740 c0 -5 3 -10 8 -10 8 0 32 -49 32 -67 0 -7 -11 -13 -26
-13 -34 0 -26 -22 9 -26 17 -2 27 2 27 11 0 7 4 15 10 17 13 4 -32 97 -47 98
-7 0 -13 -4 -13 -10z"/>
<path d="M1562 4709 c2 -7 10 -15 17 -17 8 -3 12 1 9 9 -2 7 -10 15 -17 17 -8
3 -12 -1 -9 -9z"/>
<path d="M1684 4709 c-3 -6 0 -18 9 -26 13 -13 14 -12 10 11 -6 29 -9 31 -19
15z"/>
<path d="M1805 4700 c4 -6 11 -8 16 -5 14 9 11 15 -7 15 -8 0 -12 -5 -9 -10z"/>
<path d="M1640 4666 c0 -8 4 -17 9 -20 5 -4 7 3 4 14 -6 23 -13 26 -13 6z"/>
<path d="M1820 4569 c0 -11 5 -17 10 -14 6 3 10 13 10 21 0 8 -4 14 -10 14 -5
0 -10 -9 -10 -21z"/>
<path d="M1640 4534 c0 -8 5 -12 10 -9 6 3 10 10 10 16 0 5 -4 9 -10 9 -5 0
-10 -7 -10 -16z"/>
<path d="M1600 4500 c0 -5 5 -10 10 -10 6 0 10 5 10 10 0 6 -4 10 -10 10 -5 0
-10 -4 -10 -10z"/>
<path d="M1665 4490 c-7 -11 19 -20 34 -10 9 5 7 9 -8 13 -12 3 -23 2 -26 -3z"/>
<path d="M1680 4405 c0 -8 5 -15 10 -15 6 0 10 7 10 15 0 8 -4 15 -10 15 -5 0
-10 -7 -10 -15z"/>
<path d="M1710 4342 c0 -5 7 -17 15 -28 15 -19 20 -8 9 20 -6 17 -24 22 -24 8z"/>
<path d="M1760 4289 c-13 -24 -4 -41 10 -19 10 16 13 40 5 40 -2 0 -9 -9 -15
-21z"/>
<path d="M1648 4215 c2 -14 9 -25 14 -25 6 0 7 7 4 16 -3 9 -6 20 -6 25 0 5
-4 9 -9 9 -4 0 -6 -11 -3 -25z"/>
<path d="M1858 4215 c2 -14 8 -25 13 -25 10 0 11 12 3 34 -10 25 -22 19 -16
-9z"/>
<path d="M1749 4203 c-1 -5 -1 -19 0 -33 2 -23 1 -24 -13 -7 -9 12 -16 14 -21
8 -8 -14 3 -31 21 -31 8 0 14 -5 14 -12 0 -25 19 8 25 45 6 30 4 37 -9 37 -9
0 -16 -3 -17 -7z"/>
<path d="M1820 4144 c0 -8 5 -12 10 -9 6 3 10 10 10 16 0 5 -4 9 -10 9 -5 0
-10 -7 -10 -16z"/>
<path d="M1820 4071 c0 -12 5 -21 10 -21 6 0 10 6 10 14 0 8 -4 18 -10 21 -5
3 -10 -3 -10 -14z"/>
<path d="M1764 4053 c-4 -13 -11 -20 -20 -16 -20 7 -34 -37 -34 -105 0 -81 8
-104 32 -96 12 3 27 -1 38 -11 17 -16 18 -15 9 22 -5 21 -9 62 -9 91 0 45 3
54 23 62 12 5 16 9 9 9 -7 1 -19 16 -27 34 -13 30 -15 30 -21 10z"/>
<path d="M1606 3899 c-6 -46 -3 -70 8 -58 10 10 17 109 8 109 -5 0 -12 -23
-16 -51z"/>
<path d="M1830 3935 c0 -9 5 -15 11 -13 6 2 11 8 11 13 0 5 -5 11 -11 13 -6 2
-11 -4 -11 -13z"/>
<path d="M1661 3880 l1 -45 11 33 c7 24 7 36 -1 44 -9 9 -12 1 -11 -32z"/>
<path d="M1816 3901 c-4 -6 -3 -19 3 -28 9 -17 10 -17 17 0 8 21 -10 45 -20
28z"/>
<path d="M1885 3830 c-3 -5 -1 -10 4 -10 6 0 11 5 11 10 0 6 -2 10 -4 10 -3 0
-8 -4 -11 -10z"/>
<path d="M1595 3763 c11 -46 25 -51 25 -10 0 27 -4 37 -16 37 -13 0 -15 -6 -9
-27z"/>
<path d="M1712 3740 c0 -14 2 -19 5 -12 2 6 2 18 0 25 -3 6 -5 1 -5 -13z"/>
<path d="M1772 3728 c2 -6 10 -14 16 -16 7 -2 10 2 6 12 -7 18 -28 22 -22 4z"/>
<path d="M1730 3684 c0 -8 5 -12 10 -9 6 3 10 10 10 16 0 5 -4 9 -10 9 -5 0
-10 -7 -10 -16z"/>
<path d="M1723 3450 c-6 -36 -6 -63 -1 -66 5 -3 8 -18 6 -32 -2 -19 2 -28 15
-30 10 -2 17 3 17 12 0 9 4 16 8 16 5 0 9 28 10 63 1 43 7 66 17 73 14 10 14
12 -1 18 -8 3 -26 6 -38 6 -21 0 -24 -7 -33 -60z"/>
<path d="M1780 3314 c0 -14 3 -14 15 -4 8 7 15 14 15 16 0 2 -7 4 -15 4 -8 0
-15 -7 -15 -16z"/>
<path d="M1846 3311 c-4 -7 -5 -15 -2 -18 9 -9 19 4 14 18 -4 11 -6 11 -12 0z"/>
<path d="M1720 3280 c0 -5 5 -10 10 -10 6 0 10 5 10 10 0 6 -4 10 -10 10 -5 0
-10 -4 -10 -10z"/>
<path d="M1850 3146 c0 -9 5 -16 10 -16 6 0 10 4 10 9 0 6 -4 13 -10 16 -5 3
-10 -1 -10 -9z"/>
<path d="M1771 3111 c-7 -12 -7 -22 -2 -26 5 -3 13 4 16 16 9 28 -1 36 -14 10z"/>
<path d="M1708 3094 c-7 -7 24 -64 35 -64 10 0 9 15 -5 45 -11 25 -19 30 -30
19z"/>
<path d="M1595 3081 c-3 -5 -1 -12 5 -16 5 -3 10 1 10 9 0 18 -6 21 -15 7z"/>
<path d="M1992 3058 c-17 -17 -15 -31 5 -24 9 4 20 1 24 -6 4 -7 11 -10 14 -6
7 6 -16 48 -25 48 -3 0 -11 -5 -18 -12z"/>
<path d="M1674 3029 c4 -13 12 -50 18 -82 8 -47 7 -63 -5 -81 -11 -16 -12 -27
-5 -41 8 -14 7 -21 -6 -30 -20 -15 -20 -34 0 -64 12 -17 19 -20 28 -11 8 8 6
15 -7 25 -16 11 -16 17 -5 55 9 28 21 45 36 51 22 8 22 10 6 40 -10 20 -14 43
-10 64 5 26 1 37 -25 65 -29 30 -31 31 -25 9z"/>
<path d="M1977 2980 c3 -11 9 -17 14 -15 10 7 1 35 -11 35 -5 0 -6 -9 -3 -20z"/>
<path d="M1630 2969 c0 -5 5 -7 10 -4 6 3 10 8 10 11 0 2 -4 4 -10 4 -5 0 -10
-5 -10 -11z"/>
<path d="M1980 2913 c0 -23 5 -33 15 -33 19 0 19 21 0 46 -14 18 -14 17 -15
-13z"/>
<path d="M2080 2930 c0 -5 5 -10 10 -10 6 0 10 5 10 10 0 6 -4 10 -10 10 -5 0
-10 -4 -10 -10z"/>
<path d="M1660 2916 c0 -22 17 -28 24 -10 9 22 8 24 -9 24 -8 0 -15 -6 -15
-14z"/>
<path d="M1595 2910 c3 -5 8 -10 11 -10 2 0 4 5 4 10 0 6 -5 10 -11 10 -5 0
-7 -4 -4 -10z"/>
<path d="M1780 2899 c0 -16 20 -49 29 -49 5 0 4 14 -2 30 -11 29 -27 41 -27
19z"/>
<path d="M1630 2845 c0 -9 5 -15 11 -13 6 2 11 8 11 13 0 5 -5 11 -11 13 -6 2
-11 -4 -11 -13z"/>
<path d="M1740 2809 c0 -5 5 -7 10 -4 6 3 10 8 10 11 0 2 -4 4 -10 4 -5 0 -10
-5 -10 -11z"/>
<path d="M1610 2791 c0 -6 5 -13 10 -16 6 -3 10 1 10 9 0 9 -4 16 -10 16 -5 0
-10 -4 -10 -9z"/>
<path d="M1774 2759 c-4 -7 1 -16 10 -21 23 -13 20 -33 -6 -46 l-23 -11 22 0
c12 -1 23 -7 26 -13 3 -10 9 -8 23 4 17 17 17 18 -4 41 -12 13 -22 31 -22 40
0 19 -15 23 -26 6z"/>
<path d="M1646 2685 c-11 -8 -15 -15 -10 -15 6 0 19 7 30 15 10 8 15 14 9 14
-5 0 -19 -6 -29 -14z"/>
<path d="M1670 2404 c0 -8 5 -12 10 -9 6 4 8 11 5 16 -9 14 -15 11 -15 -7z"/>
<path d="M1710 2140 c0 -5 5 -10 10 -10 6 0 10 5 10 10 0 6 -4 10 -10 10 -5 0
-10 -4 -10 -10z"/>
<path d="M1677 2113 c-12 -11 -8 -23 8 -23 8 0 15 7 15 15 0 16 -12 20 -23 8z"/>
<path d="M2020 4691 c0 -6 5 -13 10 -16 6 -3 10 1 10 9 0 9 -4 16 -10 16 -5 0
-10 -4 -10 -9z"/>
<path d="M2050 4108 c0 -7 -3 -23 -6 -35 -10 -35 13 -27 25 8 14 40 14 39 -4
39 -8 0 -15 -6 -15 -12z"/>
<path d="M2031 3585 c0 -16 6 -39 14 -49 24 -32 28 -11 6 36 -20 41 -20 42
-20 13z"/>
<path d="M2910 4401 c0 -5 7 -14 15 -21 13 -10 15 -9 15 9 0 12 -6 21 -15 21
-8 0 -15 -4 -15 -9z"/>
<path d="M3240 4564 c0 -8 5 -12 10 -9 6 3 10 10 10 16 0 5 -4 9 -10 9 -5 0
-10 -7 -10 -16z"/>
<path d="M3322 4310 c-14 -23 -16 -40 -3 -40 9 0 25 49 19 56 -2 2 -9 -6 -16
-16z"/>
<path d="M3194 4240 c-1 -39 -1 -39 16 -17 14 16 15 25 6 39 -16 27 -21 22
-22 -22z"/>
<path d="M3260 4098 c0 -26 16 -55 25 -47 8 8 -6 69 -16 69 -5 0 -9 -10 -9
-22z"/>
<path d="M3646 4423 c-4 -9 -2 -21 4 -27 7 -7 10 -2 10 17 0 31 -5 34 -14 10z"/>
<path d="M3600 4381 c0 -6 4 -13 10 -16 6 -3 7 1 4 9 -7 18 -14 21 -14 7z"/>
<path d="M3590 4273 c0 -19 11 -43 21 -43 13 0 11 14 -6 36 -8 10 -15 14 -15
7z"/>
<path d="M3695 4250 c3 -5 8 -10 11 -10 2 0 4 5 4 10 0 6 -5 10 -11 10 -5 0
-7 -4 -4 -10z"/>
<path d="M3688 4183 c6 -2 18 -2 25 0 6 3 1 5 -13 5 -14 0 -19 -2 -12 -5z"/>
<path d="M3607 4133 c-4 -3 -7 -20 -7 -37 0 -28 1 -29 14 -11 12 16 16 17 30
6 14 -11 16 -11 16 3 0 9 -8 16 -17 16 -15 0 -14 2 3 15 18 14 18 14 -7 15
-14 0 -29 -3 -32 -7z"/>
<path d="M2530 4381 c0 -6 5 -13 10 -16 6 -3 10 1 10 9 0 9 -4 16 -10 16 -5 0
-10 -4 -10 -9z"/>
<path d="M2598 4378 c7 -7 12 -20 12 -30 0 -11 7 -18 20 -18 11 0 20 2 20 5 0
7 -50 55 -57 55 -4 0 -2 -5 5 -12z"/>
<path d="M2480 4353 c0 -6 5 -15 10 -18 6 -3 10 -15 10 -27 0 -14 5 -18 15
-14 8 3 21 -4 28 -15 11 -15 16 -16 20 -6 5 12 -33 57 -48 57 -4 0 -14 8 -21
18 -7 9 -14 12 -14 5z"/>
<path d="M2427 4336 c-4 -9 -2 -18 3 -21 6 -4 10 -17 10 -31 0 -13 4 -24 9
-24 14 0 11 68 -4 80 -9 8 -14 6 -18 -4z"/>
<path d="M2607 4253 c-3 -16 -5 -29 -4 -30 1 -1 14 1 30 4 20 4 27 11 27 29 0
19 -5 24 -24 24 -18 0 -25 -7 -29 -27z"/>
<path d="M2477 4243 c-10 -9 23 -43 41 -43 8 0 21 -8 28 -17 11 -16 13 -13 10
22 -2 22 -6 39 -10 37 -26 -12 -38 -13 -50 -3 -7 6 -16 8 -19 4z"/>
<path d="M2435 4180 c-3 -5 -16 -10 -28 -11 -15 -1 -11 -4 13 -11 19 -5 40
-14 47 -20 12 -10 33 -3 33 10 0 14 -58 43 -65 32z"/>
<path d="M2423 4113 c-19 -31 -16 -61 6 -68 12 -4 21 -19 25 -45 7 -42 36 -58
36 -20 0 11 5 20 10 20 6 0 10 5 10 10 0 6 -6 10 -14 10 -9 0 -12 8 -8 25 4
25 -11 35 -23 15 -13 -21 -24 -8 -27 33 -3 39 -4 40 -15 20z"/>
<path d="M2607 4114 c-4 -4 -7 -17 -7 -28 1 -19 1 -20 11 -3 11 19 8 43 -4 31z"/>
<path d="M2510 4090 c0 -5 5 -10 10 -10 6 0 10 5 10 10 0 6 -4 10 -10 10 -5 0
-10 -4 -10 -10z"/>
<path d="M2530 4056 c0 -9 7 -16 16 -16 9 0 14 5 12 12 -6 18 -28 21 -28 4z"/>
<path d="M2610 3889 c0 -5 5 -7 10 -4 6 3 10 8 10 11 0 2 -4 4 -10 4 -5 0 -10
-5 -10 -11z"/>
<path d="M2480 3792 c0 -10 7 -27 16 -38 14 -17 15 -17 10 -1 -3 10 -6 27 -6
38 0 10 -4 19 -10 19 -5 0 -10 -8 -10 -18z"/>
<path d="M2524 3718 c-4 -6 1 -17 11 -25 22 -16 35 -17 35 -3 0 6 -4 10 -10
10 -5 0 -10 7 -10 15 0 18 -16 20 -26 3z"/>
<path d="M2373 3623 c-21 -8 -15 -23 10 -23 17 0 19 -2 7 -10 -11 -7 -12 -12
-4 -20 8 -8 14 -8 18 -2 3 6 24 8 46 5 36 -5 40 -3 40 16 0 11 -1 24 -2 28 -3
8 -98 14 -115 6z"/>
<path d="M2640 3620 c0 -5 5 -10 10 -10 6 0 10 5 10 10 0 6 -4 10 -10 10 -5 0
-10 -4 -10 -10z"/>
<path d="M2595 3574 c4 -11 9 -39 11 -63 2 -24 6 -51 10 -60 3 -9 8 -31 11
-50 5 -37 -7 -51 -46 -51 -17 0 -22 -4 -17 -16 3 -9 6 -18 6 -20 0 -13 31 -1
41 17 8 16 18 20 44 17 26 -3 32 -1 24 8 -5 7 -7 23 -4 37 4 14 2 28 -4 31 -6
4 -11 16 -11 26 0 10 -6 21 -12 23 -10 4 -10 7 0 15 11 7 8 18 -11 53 -25 44
-58 70 -42 33z"/>
<path d="M2530 3543 c1 -13 51 -45 58 -38 4 4 -4 15 -17 26 -24 20 -41 25 -41
12z"/>
<path d="M2675 3530 c-3 -5 -2 -10 4 -10 5 0 13 5 16 10 3 6 2 10 -4 10 -5 0
-13 -4 -16 -10z"/>
<path d="M2488 3513 c7 -3 16 -2 19 1 4 3 -2 6 -13 5 -11 0 -14 -3 -6 -6z"/>
<path d="M2560 3470 c0 -11 5 -20 10 -20 6 0 10 9 10 20 0 11 -4 20 -10 20 -5
0 -10 -9 -10 -20z"/>
<path d="M2425 3419 c-4 -6 -5 -13 -2 -16 7 -7 27 6 27 18 0 12 -17 12 -25 -2z"/>
<path d="M2502 3410 c0 -14 2 -19 5 -12 2 6 2 18 0 25 -3 6 -5 1 -5 -13z"/>
<path d="M2516 3373 c-11 -11 -6 -23 9 -23 8 0 15 4 15 9 0 13 -16 22 -24 14z"/>
<path d="M2460 3340 c0 -5 9 -10 21 -10 11 0 17 5 14 10 -3 6 -13 10 -21 10
-8 0 -14 -4 -14 -10z"/>
<path d="M2460 3273 c0 -4 5 -15 10 -23 8 -13 10 -13 10 2 0 9 -4 20 -10 23
-5 3 -10 3 -10 -2z"/>
<path d="M2385 3260 c3 -5 8 -10 11 -10 2 0 4 5 4 10 0 6 -5 10 -11 10 -5 0
-7 -4 -4 -10z"/>
<path d="M2650 3256 c0 -8 5 -18 10 -21 6 -3 10 3 10 14 0 12 -4 21 -10 21 -5
0 -10 -6 -10 -14z"/>
<path d="M2405 3190 c-3 -5 3 -10 15 -10 12 0 18 5 15 10 -3 6 -10 10 -15 10
-5 0 -12 -4 -15 -10z"/>
<path d="M2367 2991 c3 -12 10 -21 15 -21 13 0 6 32 -9 37 -7 3 -9 -3 -6 -16z"/>
<path d="M2550 2949 c0 -5 5 -7 10 -4 6 3 10 8 10 11 0 2 -4 4 -10 4 -5 0 -10
-5 -10 -11z"/>
<path d="M2620 2824 c0 -8 5 -12 10 -9 6 3 10 10 10 16 0 5 -4 9 -10 9 -5 0
-10 -7 -10 -16z"/>
<path d="M2666 2772 c-3 -6 -1 -14 5 -17 14 -9 20 -2 10 14 -6 8 -11 9 -15 3z"/>
<path d="M2702 2665 c0 -16 2 -22 5 -12 2 9 2 23 0 30 -3 6 -5 -1 -5 -18z"/>
<path d="M2660 2610 c0 -11 4 -20 9 -20 11 0 22 26 14 34 -12 12 -23 5 -23
-14z"/>
<path d="M2690 2551 c0 -11 31 -24 39 -16 3 3 -1 10 -9 15 -19 12 -30 12 -30
1z"/>
<path d="M1147 3893 c-4 -6 0 -19 8 -29 11 -15 14 -16 15 -4 0 21 -16 44 -23
33z"/>
<path d="M1227 3735 l-18 -25 31 0 c27 0 31 3 28 22 -4 30 -20 31 -41 3z"/>
<path d="M1275 3661 c-3 -5 -1 -12 5 -16 5 -3 10 1 10 9 0 18 -6 21 -15 7z"/>
<path d="M1230 3616 c0 -9 5 -16 10 -16 6 0 10 4 10 9 0 6 -4 13 -10 16 -5 3
-10 -1 -10 -9z"/>
<path d="M1272 3573 c-6 -20 -8 -41 -4 -47 4 -6 7 -19 7 -28 0 -10 4 -18 9
-18 10 0 15 120 5 126 -3 2 -11 -13 -17 -33z"/>
<path d="M1150 3545 c0 -8 5 -15 10 -15 6 0 10 7 10 15 0 8 -4 15 -10 15 -5 0
-10 -7 -10 -15z"/>
<path d="M1205 3551 c-3 -5 -1 -12 5 -16 5 -3 10 1 10 9 0 18 -6 21 -15 7z"/>
<path d="M1200 3490 c-24 -8 -23 -8 8 -9 17 -1 32 4 32 9 0 11 -5 11 -40 0z"/>
<path d="M1172 3450 c0 -14 2 -19 5 -12 2 6 2 18 0 25 -3 6 -5 1 -5 -13z"/>
<path d="M1220 3429 c0 -5 5 -7 10 -4 6 3 10 8 10 11 0 2 -4 4 -10 4 -5 0 -10
-5 -10 -11z"/>
<path d="M1180 3330 c-8 -5 -11 -12 -8 -16 10 -9 38 3 38 16 0 12 -10 13 -30
0z"/>
<path d="M1116 3074 c-11 -27 -7 -37 9 -24 16 14 20 40 6 40 -5 0 -12 -7 -15
-16z"/>
<path d="M1235 3030 c-3 -5 -1 -10 4 -10 6 0 11 5 11 10 0 6 -2 10 -4 10 -3 0
-8 -4 -11 -10z"/>
<path d="M1161 3017 c-12 -15 -11 -17 2 -17 9 0 21 -8 26 -17 10 -17 10 -17
11 0 0 9 -4 17 -9 17 -5 0 -11 7 -13 17 -3 15 -4 15 -17 0z"/>
<path d="M1290 3010 c0 -6 7 -10 15 -10 8 0 15 2 15 4 0 2 -7 6 -15 10 -8 3
-15 1 -15 -4z"/>
<path d="M1160 2940 c0 -5 5 -10 10 -10 6 0 10 5 10 10 0 6 -4 10 -10 10 -5 0
-10 -4 -10 -10z"/>
<path d="M1190 2905 c0 -8 5 -15 10 -15 6 0 10 7 10 15 0 8 -4 15 -10 15 -5 0
-10 -7 -10 -15z"/>
<path d="M1120 2881 c0 -6 5 -13 10 -16 6 -3 10 1 10 9 0 9 -4 16 -10 16 -5 0
-10 -4 -10 -9z"/>
<path d="M1196 2840 c-1 -3 -3 -36 -4 -74 -1 -38 -7 -75 -13 -82 -8 -10 -8
-14 0 -14 6 0 11 4 11 10 0 5 10 8 22 7 29 -5 43 -51 21 -72 -13 -13 -13 -16
0 -21 20 -7 16 -63 -6 -79 -21 -15 -22 -31 -2 -39 10 -4 15 1 15 14 0 11 6 21
13 21 6 1 19 2 27 3 12 1 16 17 17 71 1 39 5 90 8 114 4 38 3 42 -8 27 -12
-16 -14 -15 -36 8 -32 34 -22 72 24 92 19 8 35 15 35 17 0 5 -121 3 -124 -3z"/>
<path d="M1280 2776 c0 -9 5 -16 10 -16 6 0 10 4 10 9 0 6 -4 13 -10 16 -5 3
-10 -1 -10 -9z"/>
<path d="M1090 2766 c0 -3 4 -16 10 -30 9 -25 40 -37 40 -16 0 6 -4 10 -9 10
-5 0 -13 9 -16 20 -5 17 -25 29 -25 16z"/>
<path d="M1105 2669 c-11 -17 1 -21 15 -4 8 9 8 15 2 15 -6 0 -14 -5 -17 -11z"/>
<path d="M1166 2621 c-4 -7 -5 -15 -2 -18 9 -9 19 4 14 18 -4 11 -6 11 -12 0z"/>
<path d="M1100 2588 c0 -7 9 -19 20 -25 17 -12 18 -11 11 9 -9 25 -31 36 -31
16z"/>
<path d="M1310 2344 c0 -8 5 -12 10 -9 6 4 8 11 5 16 -9 14 -15 11 -15 -7z"/>
<path d="M1217 2173 c-4 -3 -7 -13 -7 -22 1 -13 3 -13 11 2 11 19 8 33 -4 20z"/>
<path d="M1370 1990 c0 -5 5 -10 10 -10 6 0 10 5 10 10 0 6 -4 10 -10 10 -5 0
-10 -4 -10 -10z"/>
<path d="M1397 1935 c-4 -8 -2 -17 3 -20 6 -4 10 -4 10 -1 0 2 3 11 6 20 3 9
2 16 -4 16 -5 0 -12 -7 -15 -15z"/>
<path d="M1290 1920 c0 -5 5 -10 10 -10 6 0 10 5 10 10 0 6 -4 10 -10 10 -5 0
-10 -4 -10 -10z"/>
<path d="M1325 1860 c3 -5 10 -10 16 -10 5 0 9 5 9 10 0 6 -7 10 -16 10 -8 0
-12 -4 -9 -10z"/>
<path d="M1300 1760 c0 -5 5 -10 10 -10 6 0 10 5 10 10 0 6 -4 10 -10 10 -5 0
-10 -4 -10 -10z"/>
<path d="M2950 2646 c0 -24 12 -41 22 -30 8 7 -3 54 -13 54 -5 0 -9 -11 -9
-24z"/>
<path d="M2920 2020 c0 -5 5 -10 10 -10 6 0 10 5 10 10 0 6 -4 10 -10 10 -5 0
-10 -4 -10 -10z"/>
<path d="M2955 1970 c-7 -12 2 -30 16 -30 5 0 9 9 9 20 0 21 -15 27 -25 10z"/>
<path d="M4982 6108 c-70 -76 -71 -213 -1 -293 102 -116 231 29 173 198 -17
50 -38 75 -49 57 -9 -15 -25 -12 -25 5 0 8 -4 15 -9 15 -5 0 -7 9 -4 20 5 17
0 20 -29 20 -23 0 -42 -8 -56 -22z"/>
<path d="M5770 6112 c-63 -32 -106 -149 -88 -239 20 -99 103 -141 178 -90 57
37 75 80 75 173 0 69 -3 85 -25 117 -22 33 -62 57 -94 57 -6 0 -27 -8 -46 -18z"/>
<path d="M930 5885 c-10 -12 -10 -18 0 -30 19 -23 27 -18 27 15 0 33 -8 38
-27 15z"/>
<path d="M4840 5689 c0 -5 5 -7 10 -4 6 3 10 8 10 11 0 2 -4 4 -10 4 -5 0 -10
-5 -10 -11z"/>
<path d="M693 5190 c0 -30 2 -43 4 -27 2 15 2 39 0 55 -2 15 -4 2 -4 -28z"/>
<path d="M5055 5180 c3 -5 8 -10 11 -10 2 0 4 5 4 10 0 6 -5 10 -11 10 -5 0
-7 -4 -4 -10z"/>
<path d="M692 5110 c0 -14 2 -19 5 -12 2 6 2 18 0 25 -3 6 -5 1 -5 -13z"/>
<path d="M3000 3909 c0 -5 5 -7 10 -4 6 3 10 8 10 11 0 2 -4 4 -10 4 -5 0 -10
-5 -10 -11z"/>
<path d="M2931 3833 c7 -13 19 -18 31 -15 22 5 34 22 16 22 -7 0 -24 3 -36 7
-22 5 -23 4 -11 -14z"/>
<path d="M2917 3793 c-14 -13 -7 -63 8 -63 10 0 15 11 15 35 0 33 -8 43 -23
28z"/>
<path d="M3120 3784 c0 -30 11 -64 21 -64 5 0 9 6 9 14 0 8 5 16 11 18 5 2 -1
14 -15 27 -24 23 -26 23 -26 5z"/>
<path d="M3130 3651 c0 -6 5 -13 10 -16 6 -3 10 1 10 9 0 9 -4 16 -10 16 -5 0
-10 -4 -10 -9z"/>
<path d="M3290 3644 c0 -8 5 -12 10 -9 6 4 8 11 5 16 -9 14 -15 11 -15 -7z"/>
<path d="M3156 3585 c4 -8 11 -15 16 -15 6 0 5 6 -2 15 -7 8 -14 15 -16 15 -2
0 -1 -7 2 -15z"/>
<path d="M3145 3485 c0 -14 5 -23 10 -22 6 2 10 12 10 22 0 10 -4 20 -10 22
-5 2 -10 -8 -10 -22z"/>
<path d="M3340 3262 c0 -19 12 -42 22 -42 14 0 5 43 -9 48 -7 2 -13 -1 -13 -6z"/>
<path d="M3233 3206 c-22 -10 -31 -31 -15 -39 4 -2 17 7 30 19 26 25 18 35
-15 20z"/>
<path d="M3320 3190 c0 -5 5 -10 10 -10 6 0 10 5 10 10 0 6 -4 10 -10 10 -5 0
-10 -4 -10 -10z"/>
<path d="M3270 3140 c0 -5 5 -10 10 -10 6 0 10 5 10 10 0 6 -4 10 -10 10 -5 0
-10 -4 -10 -10z"/>
<path d="M3330 3110 c0 -5 5 -10 10 -10 6 0 10 5 10 10 0 6 -4 10 -10 10 -5 0
-10 -4 -10 -10z"/>
<path d="M3190 2980 c0 -5 5 -10 10 -10 6 0 10 5 10 10 0 6 -4 10 -10 10 -5 0
-10 -4 -10 -10z"/>
<path d="M3160 2933 c1 -18 18 -35 24 -24 4 6 4 16 1 21 -7 12 -25 13 -25 3z"/>
<path d="M3260 2880 c0 -5 7 -10 15 -10 8 0 15 5 15 10 0 6 -7 10 -15 10 -8 0
-15 -4 -15 -10z"/>
<path d="M2900 2866 c0 -8 5 -18 10 -21 6 -3 10 3 10 14 0 12 -4 21 -10 21 -5
0 -10 -6 -10 -14z"/>
<path d="M3267 2820 c-12 -28 -1 -55 24 -58 22 -3 22 -2 7 10 -9 7 -18 24 -21
38 -2 18 -5 21 -10 10z"/>
<path d="M3490 2796 c0 -8 7 -16 15 -20 17 -6 18 -4 9 18 -8 20 -24 21 -24 2z"/>
<path d="M3350 2770 c0 -5 5 -10 11 -10 5 0 7 5 4 10 -3 6 -8 10 -11 10 -2 0
-4 -4 -4 -10z"/>
<path d="M3250 2684 c0 -15 -7 -32 -17 -39 -10 -7 -13 -17 -8 -25 6 -10 10 -9
17 4 5 9 17 16 27 16 22 0 32 20 24 49 -8 32 -43 28 -43 -5z"/>
<path d="M8222 1958 c-37 -34 -68 -66 -70 -70 -2 -4 -10 -8 -18 -8 -8 0 -14
-3 -14 -8 0 -10 -77 -88 -136 -137 -26 -22 -75 -65 -109 -95 -33 -30 -69 -62
-78 -70 -10 -8 -36 -32 -58 -52 -22 -21 -43 -38 -45 -38 -2 0 -12 -8 -22 -17
-23 -23 -74 -63 -182 -147 -48 -37 -96 -84 -110 -108 -27 -44 -60 -67 -45 -32
4 11 10 27 12 37 8 26 -29 22 -57 -8 -13 -14 -34 -25 -46 -25 -28 0 -42 -19
-23 -31 8 -5 32 -9 54 -9 36 -1 38 -2 16 -11 -14 -5 -45 -9 -70 -9 -25 1 -68
-3 -96 -9 -27 -5 -77 -10 -110 -10 -66 1 -64 6 4 11 71 5 64 28 -7 28 -66 0
-95 -7 -86 -21 3 -5 -19 -10 -48 -11 -29 0 -71 -3 -93 -4 -22 -2 -49 -4 -60
-4 -11 0 -30 0 -42 0 -24 0 -28 7 -14 28 6 10 10 10 21 -3 12 -14 15 -14 32 2
16 14 23 15 38 5 24 -15 67 -16 75 -2 9 15 -10 35 -67 73 -41 26 -57 45 -87
107 -55 111 -76 223 -67 368 4 65 13 152 20 194 16 99 7 114 -33 57 -51 -72
-241 -256 -314 -305 -108 -73 -160 -85 -386 -91 -197 -6 -363 6 -435 31 -96
33 -243 136 -436 306 -41 36 -88 74 -103 84 -30 18 -49 14 -29 -6 7 -7 12 -20
12 -30 0 -10 7 -21 15 -24 8 -4 15 -12 15 -20 0 -14 16 -47 36 -74 6 -8 14
-26 17 -40 3 -14 13 -56 22 -94 8 -38 17 -97 19 -132 5 -70 -16 -179 -39 -204
-8 -9 -15 -20 -15 -24 0 -14 -63 -86 -82 -91 -10 -4 -18 -12 -18 -19 0 -13
-47 -29 -120 -41 -54 -9 -295 -5 -390 6 -107 12 -186 30 -315 69 -16 5 -46 12
-65 14 -19 3 -66 14 -105 26 -38 11 -82 20 -97 20 -15 0 -30 5 -33 10 -8 13
-62 13 -70 -1 -4 -6 2 -20 13 -32 11 -12 17 -28 15 -34 -5 -14 36 -33 69 -33
11 0 26 -7 32 -15 7 -9 38 -20 76 -25 36 -5 66 -14 68 -20 2 -5 21 -10 42 -10
26 0 40 -5 44 -16 5 -13 15 -15 46 -10 22 3 41 2 45 -4 6 -10 56 -3 65 10 10
15 110 18 121 4 6 -8 21 -14 32 -14 20 0 20 0 2 -14 -18 -13 -18 -14 3 -25 11
-6 34 -11 51 -11 16 0 33 -5 37 -11 3 -6 20 -8 38 -5 18 3 57 1 87 -4 71 -15
1789 -32 1789 -19 0 3 199 5 443 5 489 -2 560 1 550 16 -3 6 -1 8 5 4 16 -10
84 26 77 42 -2 7 0 10 5 7 6 -4 26 7 46 24 19 17 39 31 43 31 5 0 16 16 25 35
10 20 24 35 34 35 9 0 37 18 61 40 25 22 50 40 58 40 7 0 13 4 13 9 0 10 95
104 112 110 6 2 24 19 41 37 16 19 34 34 39 34 6 0 27 17 46 38 20 20 39 36
43 35 5 -2 6 3 4 10 -3 7 13 23 35 37 22 14 40 28 40 32 0 4 8 9 19 13 31 10
61 41 61 64 0 13 5 21 13 19 21 -5 113 79 128 115 7 18 18 39 25 48 8 8 16 31
18 50 3 19 5 39 6 44 6 26 -2 35 -30 35 -23 0 -46 -14 -98 -62z m-2772 -433
c-13 -16 -50 -21 -50 -7 0 15 13 22 38 22 21 0 22 -2 12 -15z m62 -1 c3 -3 1
-18 -5 -33 -9 -24 -15 -27 -46 -25 -20 2 -40 3 -44 3 -20 2 7 21 30 21 16 0
27 7 30 20 5 19 23 26 35 14z m-282 -116 c0 -7 -4 -19 -9 -27 -11 -17 -23 1
-15 23 7 19 24 21 24 4z m47 -25 c-3 -10 -5 -4 -5 12 0 17 2 24 5 18 2 -7 2
-21 0 -30z m573 -13 c0 -5 -4 -10 -10 -10 -5 0 -10 5 -10 10 0 6 5 10 10 10 6
0 10 -4 10 -10z m60 -266 c0 -9 -11 -14 -32 -14 l-33 1 24 19 c24 21 41 19 41
-6z m457 9 c3 -9 -10 -12 -41 -11 -48 1 -62 13 -23 21 35 7 60 3 64 -10z m264
4 c-1 -4 -3 -7 -6 -7 -40 0 -40 0 -25 10 16 10 32 9 31 -3z m-1351 -6 c0 -2
-8 -9 -17 -16 -12 -9 -23 -10 -40 -2 -35 16 -28 26 17 24 22 -1 40 -3 40 -6z
m968 -2 c-2 -6 -8 -10 -13 -10 -5 0 -11 4 -13 10 -2 6 4 11 13 11 9 0 15 -5
13 -11z m302 1 c0 -5 -7 -10 -15 -10 -8 0 -15 5 -15 10 0 6 7 10 15 10 8 0 15
-4 15 -10z m-1543 -6 c-3 -3 -12 -4 -19 -1 -8 3 -5 6 6 6 11 1 17 -2 13 -5z
m723 -9 c7 -9 8 -15 2 -15 -5 0 -12 7 -16 15 -3 8 -4 15 -2 15 2 0 9 -7 16
-15z m-175 -5 c3 -5 1 -10 -4 -10 -6 0 -11 5 -11 10 0 6 2 10 4 10 3 0 8 -4
11 -10z m1765 -15 c-7 -9 -15 -13 -17 -11 -7 7 7 26 19 26 6 0 6 -6 -2 -15z"/>
<path d="M3497 1333 c-9 -8 48 -43 70 -43 9 0 29 -12 44 -26 17 -16 34 -24 43
-21 20 8 21 37 2 37 -8 0 -16 7 -19 14 -8 20 -127 53 -140 39z"/>
<path d="M4263 1102 c-56 -3 -70 -17 -28 -28 32 -8 97 8 87 21 -4 6 -31 9 -59
7z"/>
</g>
</svg>
